<svg width="14" height="12" viewBox="0 0 14 12" fill="none" xmlns="http://www.w3.org/2000/svg">
<path fill-rule="evenodd" clip-rule="evenodd" d="M7.7421 0.356655C7.50593 0.6094 7.50676 1.0183 7.74394 1.26996L11.5933 5.35412H0.939305L0.857067 5.36002C0.561252 5.40278 0.333252 5.67298 0.333252 5.99993C0.333252 6.35659 0.604591 6.64573 0.939305 6.64573H11.592L7.74391 10.7298L7.68509 10.8021C7.50855 11.0545 7.52742 11.4133 7.74213 11.6431C7.97832 11.8958 8.36205 11.8967 8.59922 11.645L13.4738 6.47211C13.5873 6.35929 13.66 6.20062 13.666 6.02381C13.6721 5.85007 13.6128 5.67419 13.488 5.54179L8.59919 0.354688L8.53109 0.292315C8.29345 0.105272 7.9568 0.126887 7.7421 0.356655Z" fill="white"/>
</svg>
