<svg width="14" height="16" viewBox="0 0 14 16" fill="none" xmlns="http://www.w3.org/2000/svg">
<path d="M10.9727 13.3583C9.91135 14.4098 8.50212 14.9869 6.99999 14.9869C5.49786 14.9869 4.08863 14.4098 3.02726 13.3583C1.96984 12.3088 1.38678 10.9173 1.38678 9.43695C1.38678 8.57718 1.58048 7.75299 1.96194 6.98612C2.33352 6.23703 2.88693 5.567 3.55893 5.05114C3.98751 4.72342 4.37623 4.34664 4.71715 3.9285C5.21127 3.32567 5.59867 2.65366 5.86747 1.93225C5.97773 1.63466 6.05785 1.32677 6.10662 1.01318C6.58295 1.45196 6.9822 1.98166 7.31623 2.60228C7.97637 3.83955 8.28075 4.94046 8.22146 5.87731C8.20729 6.09796 8.24333 6.31894 8.32686 6.52366C8.41039 6.72838 8.53924 6.91149 8.70372 7.05925C8.84626 7.18801 9.01297 7.28716 9.19415 7.35095C9.37534 7.41474 9.56739 7.44189 9.75916 7.43082C10.1485 7.41106 10.5063 7.23911 10.7672 6.94856C11.03 6.65407 11.2573 6.35364 11.4471 6.04729C11.7238 6.40108 11.955 6.78649 12.1388 7.20155C12.4531 7.90913 12.6132 8.66217 12.6132 9.43695C12.6132 10.9173 12.0301 12.3108 10.9727 13.3583Z" stroke="#97A2B0" stroke-linejoin="round"/>
<path d="M7.84726 11.9546C7.42128 12.3766 6.8557 12.6083 6.25283 12.6083C5.64996 12.6083 5.08437 12.3766 4.6584 11.9546C4.23401 11.5334 4 10.975 4 10.3808C4 10.0358 4.07774 9.70498 4.23084 9.3972C4.37997 9.09656 4.60208 8.82765 4.87178 8.62061C5.04379 8.48908 5.1998 8.33786 5.33662 8.17004C5.53494 7.9281 5.69041 7.6584 5.7983 7.36886C5.84255 7.24943 5.8747 7.12585 5.89428 7C6.08545 7.1761 6.24569 7.38869 6.37975 7.63777C6.64469 8.13435 6.76685 8.57619 6.74306 8.95219C6.73737 9.04074 6.75183 9.12943 6.78536 9.21159C6.81888 9.29376 6.87059 9.36725 6.93661 9.42655C6.99382 9.47823 7.06072 9.51802 7.13344 9.54362C7.20616 9.56922 7.28324 9.58012 7.3602 9.57568C7.51647 9.56775 7.66005 9.49873 7.76476 9.38213C7.87026 9.26393 7.96149 9.14336 8.03764 9.02041C8.14869 9.1624 8.2415 9.31708 8.31528 9.48366C8.4414 9.76765 8.50566 10.0699 8.50566 10.3808C8.50566 10.975 8.27165 11.5342 7.84726 11.9546Z" stroke="#97A2B0" stroke-linejoin="round"/>
</svg>
