<svg xmlns="http://www.w3.org/2000/svg" fill-rule="evenodd" stroke-linejoin="round" stroke-miterlimit="2" clip-rule="evenodd" viewBox="0 0 32 32" id="chat-bubble">
  <path d="M16,5c-7.244,0 -13,4.523 -13,9.889c0,1.716 0.571,3.337 1.59,4.754l-1.559,6.111c-0.103,0.404 0.057,0.83 0.401,1.068c0.344,0.238 0.8,0.236 1.142,-0.004l4.842,-3.396c1.924,0.859 4.176,1.355 6.584,1.355c7.244,0 13,-4.523 13,-9.888c0,-5.366 -5.756,-9.889 -13,-9.889Zm0,2c3.679,-0 6.951,1.3 8.973,3.344c1.263,1.275 2.027,2.842 2.027,4.545c0,1.702 -0.764,3.269 -2.027,4.545c-2.022,2.043 -5.294,3.343 -8.973,3.343c-2.307,0 -4.455,-0.514 -6.238,-1.402c-0.329,-0.163 -0.72,-0.135 -1.02,0.076l-3.105,2.18l1.009,-3.963c0.078,-0.306 0.008,-0.629 -0.189,-0.873c-0.919,-1.146 -1.457,-2.479 -1.457,-3.906c0,-1.703 0.764,-3.27 2.027,-4.545c2.022,-2.044 5.294,-3.344 8.973,-3.344Zm-5,6c-1.097,0 -2,0.903 -2,2c0,1.097 0.903,2 2,2c1.097,0 2,-0.903 2,-2c0,-1.097 -0.903,-2 -2,-2Zm5,0c-1.097,0 -2,0.903 -2,2c0,1.097 0.903,2 2,2c1.097,0 2,-0.903 2,-2c0,-1.097 -0.903,-2 -2,-2Zm5,0c-1.097,0 -2,0.903 -2,2c0,1.097 0.903,2 2,2c1.097,0 2,-0.903 2,-2c0,-1.097 -0.903,-2 -2,-2Z"></path>
</svg>
