<svg width="5" height="6" viewBox="0 0 5 6" fill="none" xmlns="http://www.w3.org/2000/svg">
<path d="M4.80409 4.29417L3.44529 2.97669L4.80332 1.65922C5.06454 1.40655 5.06454 0.995302 4.80332 0.742627C4.5421 0.487728 4.11973 0.488469 3.85851 0.741886L2.49971 2.05936L1.14092 0.740404C0.879702 0.486987 0.456559 0.488469 0.195341 0.740404C-0.0651136 0.99382 -0.0651136 1.40507 0.195341 1.65774L1.5549 2.97669L0.198396 4.29194C-0.0628222 4.54536 -0.0628222 4.95661 0.198396 5.20854C0.329005 5.33599 0.499332 5.39897 0.670422 5.39897C0.842276 5.39897 1.0126 5.33599 1.14321 5.20928L2.49971 3.89329L3.85927 5.2115C3.98988 5.33821 4.16021 5.4012 4.3313 5.4012C4.50239 5.4012 4.67348 5.33747 4.80409 5.2115C5.0653 4.95809 5.0653 4.54758 4.80409 4.29417Z" fill="#484848"/>
</svg>
