<svg width="14" height="14" viewBox="0 0 14 14" fill="none" xmlns="http://www.w3.org/2000/svg">
<path d="M10.997 0.203112C10.5777 0.0624118 10.1367 0.00011177 9.69501 0.00011177C8.72201 -0.00688823 7.77771 0.315112 7.00001 0.909412C6.93701 0.861112 6.86001 0.818412 6.79001 0.777112C6.72001 0.734412 6.59401 0.630112 6.48901 0.574112L6.22301 0.455112C6.08301 0.378112 5.93671 0.322112 5.78201 0.272412C5.76801 0.259112 5.74701 0.244412 5.71901 0.231112H5.67771C5.26401 0.0904118 4.83701 0.0134118 4.39601 0.00011177H4.31901C4.12301 0.00011177 3.92771 0.0134118 3.73101 0.0421118H3.64701C3.43701 0.0694118 3.22771 0.118412 3.02471 0.188412C0.413012 1.04311 -0.517988 3.87811 0.273012 6.35611C0.721012 7.62241 1.44271 8.77111 2.38071 9.71541C3.74501 11.0314 5.23671 12.1934 6.83901 13.1874L7.02101 13.3001L7.19601 13.1944C8.79271 12.1934 10.276 11.0314 11.6277 9.72241C12.572 8.77811 13.293 7.62241 13.734 6.35611C14.5117 3.87811 13.5807 1.04311 10.997 0.203112Z" fill="#57B031"/>
<path d="M12.1101 4.50765C12.0891 4.80235 11.8441 5.03265 11.5571 5.04035C11.4031 5.02565 11.2561 4.95635 11.1581 4.83735C11.0601 4.71835 11.0118 4.56365 11.0251 4.40335V4.38165C11.0251 3.89235 10.7248 3.45065 10.2761 3.28265C9.98207 3.17835 9.82807 2.85635 9.92607 2.56235C10.0311 2.26835 10.3461 2.11365 10.6331 2.21235C11.5368 2.55535 12.1311 3.44365 12.1101 4.42435V4.50765Z" fill="#C6E3E5"/>
</svg>
