<svg width="24" height="24" viewBox="0 0 24 24" fill="none" xmlns="http://www.w3.org/2000/svg">
<path d="M20.47 6.20547L20.4701 6.20557C21.1413 6.67539 21.706 7.38624 22.1024 8.14541C22.4987 8.90459 22.76 9.7761 22.76 10.6V17.38C22.76 20.3442 20.3542 22.75 17.39 22.75H6.61001C3.64368 22.75 1.24001 20.3321 1.24001 17.37V10.47C1.24001 9.69666 1.47818 8.86777 1.83714 8.1387C2.19628 7.40929 2.70831 6.7148 3.31857 6.23875C3.31862 6.23871 3.31868 6.23866 3.31873 6.23862L8.32857 2.32875L8.33064 2.32714L8.33064 2.32714C10.1003 0.95592 12.8707 0.887133 14.71 2.17547L20.47 6.20547ZM20.47 6.20547L14.7104 2.17576L20.47 6.20547Z" fill="#DBEBE7" stroke="#129575" stroke-width="1.5"/>
</svg>
