<svg fill="#FFFFFF" xmlns="http://www.w3.org/2000/svg" id="Calque_1" data-name="Calque 1" viewBox="0 0 283.46 283.46"><defs></defs><path d="M129.87 149.57c.13-1 .25-2 .39-3.12h9.31v42.22h-8.94c-1-.87 0-2.23-.8-3.1-11 8-22 3.65-27.49-2.28a23.46 23.46 0 0 1-1.71-29.67c6.98-9.29 16.63-10.62 29.24-4.05m.5 17.84a12.32 12.32 0 0 0-12.47-12.53c-6.65 0-11.79 5.61-11.8 12.81a12.22 12.22 0 0 0 12 12.36c6.95.04 12.28-5.43 12.27-12.64" class="cls-1"></path><path d="M204.25 136.94a40.4 40.4 0 0 1-9.33-.14c-.14-1.07-.26-2-.4-3-10.75 6.34-20.71 5.39-27.92-2.58a23.85 23.85 0 0 1-1.6-29.3c6.73-9.24 15.79-10.52 29.83-4.14.11-1 .2-2 .32-3.19h9.1Zm-33.57-21.5c0 7.4 5.06 12.75 12.15 12.78 6.84 0 12.14-5.37 12.21-12.46a12.55 12.55 0 0 0-12.12-12.69 12.06 12.06 0 0 0-12.24 12.37m-14.27 3.7h-32.09c1.92 9.42 12.44 12 22.77 5.55l6.37 5.05c-6 8.31-18.1 10.63-28 5.46s-14.08-17.15-9.93-28.37A21 21 0 0 1 140 93.61c11.35 2.47 17.47 11.84 16.41 25.53m-31.77-8.3H145c.48 0 1-.07 1.46-.11a11.21 11.21 0 0 0-10.75-8.28 11.56 11.56 0 0 0-11.07 8.39" class="cls-2"></path><path d="M91.22 171.15H59.14c2 9.44 13.63 12.19 22.34 5.3l6.8 5.24c-6.51 8.45-19 10.74-28.43 5.4-9.68-5.47-13.59-17.43-9.34-28.63a20.94 20.94 0 0 1 23.83-12.94c11.55 2.48 17.72 11.62 16.88 25.63m-32-8.31h22.03a11.22 11.22 0 0 0-10.31-8.41c-5.32-.31-9.48 2.57-11.77 8.41Zm126.71-16.43h10.84l11.51 28.75c3.92-9.94 7.6-19.3 11.33-28.76h10.92c-1.64 4.11-3.18 8-4.77 11.94-6.61 16.2-13.25 32.39-19.8 48.61-.63 1.56-1.39 2.18-3.09 2.09-2.62-.14-5.25 0-8.32 0 2-4.95 3.54-9.76 5.76-14.25s2-8.21.08-12.63c-4.8-10.92-9.19-22-13.71-33.06-.33-.85-.98-1.61-.75-2.69m-5.84.14v8.84h-9.91c-3.15 0-6.29.06-9.44 0-2.33 0-3.78 1.1-3.87 3.35-.11 2.42 1.13 4.09 3.75 4.23 3.14.16 6.3.09 9.43.36a12.16 12.16 0 0 1 11.28 12.13c.18 7.27-3.54 12.61-10.3 13.12-7.64.57-15.35.13-23.22.13v-9.06c6.71 0 13.39.05 20.06 0 3.18 0 4.65-1.84 3.92-4.63a3.56 3.56 0 0 0-3.64-3.05c-2.84 0-5.68 0-8.52-.05-7.06-.07-12.08-5.55-12.12-13.21s4.49-12.41 11.83-12.46h20.09c.18.01.36.16.66.3" class="cls-1"></path><path d="M47.73 132.14a4.93 4.93 0 0 0 2.78 4.62 27.9 27.9 0 0 0 9.56 3.24 85 85 0 0 0 15.28 1.3 3.7 3.7 0 0 1 1.45.19c1.68 0 3.36-.11 5-.19a70 70 0 0 0 18.42-2.75A19.3 19.3 0 0 0 104 137a14.2 14.2 0 0 0-1-3.43c-7.37 3.13-15 4-22.88 4a51 51 0 0 1-5.93 0 63.2 63.2 0 0 1-19.06-2.56A8.2 8.2 0 0 1 52 133.4c-.91-.8-.88-1.26.16-1.91a10.6 10.6 0 0 1 4.66-1.41c1.53-.19 3-.31 4.62-.46V115a18.8 18.8 0 0 1-5.27-.77 9.07 9.07 0 0 1-6.35-10.39 9.18 9.18 0 0 1 6-6.68h5.62c2.18-4.4 6.23-7.49 13.87-8.07 6.53-.53 10.73 1.15 16 6.35.23.34.38.65.61 1 1 1.76 1 1.76 2.94 1.41a8.29 8.29 0 0 1 8.9 4.13 8.73 8.73 0 0 1-1.3 10.09 10.65 10.65 0 0 1-3.82 2.59 19.4 19.4 0 0 0 2.1 3 12.47 12.47 0 0 0 6.42-17 12.28 12.28 0 0 0-10.47-6.61 2.2 2.2 0 0 0-.49-.72C92.39 88.28 84.1 85 76.11 85.3S61.33 88.47 57.77 93a8.3 8.3 0 0 0-1.37.23 12.59 12.59 0 0 0-10.32 12.57 12.75 12.75 0 0 0 10.66 12.34c1.07.19 1.3.57 1.26 1.56-.07 1.88 0 3.71 0 5.58 0 .77-.26 1-1 1.07a16.1 16.1 0 0 0-6.18 1.65c-1.68.89-3.02 2-3.09 4.14" class="cls-2"></path><path d="M78.85 127.3h-.87c-5.47-.45-8.81-5-9-5.17l2-1.44s2.85 3.83 7.19 4.17c3 .23 6.12-1.21 9.24-4.32l1.73 1.74c-3.35 3.33-6.82 5.02-10.29 5.02m-8.94-20.51h.43a6.8 6.8 0 0 1 4.52 2.61l-1 .73a5.64 5.64 0 0 0-3.63-2.13c-1.51-.11-3.08.62-4.66 2.18l-.87-.87a7.48 7.48 0 0 1 5.21-2.52m18.64 0H89a6.8 6.8 0 0 1 4.52 2.61l-1 .73a5.64 5.64 0 0 0-3.65-2.13c-1.51-.11-3.08.62-4.66 2.18l-.87-.87a7.48 7.48 0 0 1 5.21-2.52m142.22-8.2v39.35h-9.62V98.59h-13.06v-8.3h13.06V74.41h9.62v15.88h6.61v8.3Z" class="cls-2"></path></svg>
