<svg width="18" height="18" viewBox="0 0 18 18" fill="none" xmlns="http://www.w3.org/2000/svg">
<path d="M12.9968 2.5537C12.5775 2.413 12.1365 2.3507 11.6948 2.3507C10.7218 2.3437 9.77753 2.6657 8.99983 3.26C8.93683 3.2117 8.85983 3.169 8.78983 3.1277C8.71983 3.085 8.59383 2.9807 8.48883 2.9247L8.22283 2.8057C8.08283 2.7287 7.93653 2.6727 7.78183 2.623C7.76783 2.6097 7.74683 2.595 7.71883 2.5817H7.67753C7.26383 2.441 6.83683 2.364 6.39583 2.3507H6.31883C6.12283 2.3507 5.92753 2.364 5.73083 2.3927H5.64683C5.43683 2.42 5.22753 2.469 5.02453 2.539C2.41283 3.3937 1.48183 6.2287 2.27283 8.7067C2.72083 9.973 3.44253 11.1217 4.38053 12.066C5.74483 13.382 7.23653 14.544 8.83883 15.538L9.02083 15.6507L9.19583 15.545C10.7925 14.544 12.2758 13.382 13.6275 12.073C14.5718 11.1287 15.2928 9.973 15.7338 8.7067C16.5115 6.2287 15.5805 3.3937 12.9968 2.5537Z" fill="#57B031"/>
<path d="M14.1098 6.85824C14.0888 7.15294 13.8438 7.38324 13.5568 7.39094C13.4028 7.37624 13.2558 7.30694 13.1578 7.18794C13.0598 7.06894 13.0115 6.91424 13.0248 6.75394V6.73224C13.0248 6.24294 12.7245 5.80124 12.2758 5.63324C11.9818 5.52894 11.8278 5.20694 11.9258 4.91294C12.0308 4.61894 12.3458 4.46424 12.6328 4.56294C13.5365 4.90594 14.1308 5.79424 14.1098 6.77494V6.85824Z" fill="#C6E3E5"/>
</svg>
