<svg width="24" height="24" viewBox="0 0 24 24" fill="none" xmlns="http://www.w3.org/2000/svg">
<path fill-rule="evenodd" clip-rule="evenodd" d="M6.98978 4.09863C7.55867 4.09863 8.01984 4.55981 8.01984 5.1287V7.64977C8.01984 8.21866 7.55867 8.67983 6.98978 8.67983C6.42089 8.67983 5.95972 8.21866 5.95972 7.64977V5.1287C5.95972 4.55981 6.42089 4.09863 6.98978 4.09863Z" fill="#C6E3E5"/>
<path fill-rule="evenodd" clip-rule="evenodd" d="M12 2.09863C12.5689 2.09863 13.0301 2.55981 13.0301 3.1287V7.64977C13.0301 8.21866 12.5689 8.67983 12 8.67983C11.4311 8.67983 10.97 8.21866 10.97 7.64977V3.1287C10.97 2.55981 11.4311 2.09863 12 2.09863Z" fill="#C6E3E5"/>
<path fill-rule="evenodd" clip-rule="evenodd" d="M17.0102 3.09863C17.5791 3.09863 18.0402 3.55981 18.0402 4.1287V7.64977C18.0402 8.21866 17.5791 8.67983 17.0102 8.67983C16.4413 8.67983 15.9801 8.21866 15.9801 7.64977V4.1287C15.9801 3.55981 16.4413 3.09863 17.0102 3.09863Z" fill="#C6E3E5"/>
<path d="M2.56519 13.4188C2.56519 12.476 2.56519 12.0046 2.85808 11.7117C3.15097 11.4188 3.62238 11.4188 4.56519 11.4188H19.4348C20.3776 11.4188 20.849 11.4188 21.1419 11.7117C21.4348 12.0046 21.4348 12.476 21.4348 13.4188V13.9014C21.4348 17.6727 21.4348 19.5583 20.2632 20.7298C19.0917 21.9014 17.2061 21.9014 13.4348 21.9014H10.5652C6.79395 21.9014 4.90833 21.9014 3.73676 20.7298C2.56519 19.5583 2.56519 17.6727 2.56519 13.9014V13.4188Z" fill="#57B031"/>
</svg>
