<svg width="343" height="228" viewBox="0 0 343 228" fill="none" xmlns="http://www.w3.org/2000/svg">
<g clip-path="url(#clip0_885_4961)">
<path d="M69.0189 141.674C75.706 129.517 90.1427 110.158 86.3459 110.305C86.3459 110.305 75.9265 95.3053 72.223 100.198C70.0278 103.098 62.9071 113.651 56.6709 125.641L69.0189 141.674Z" fill="#57B031"/>
<path d="M71.8965 102.78C71.7639 103.169 72.2871 103.634 72.4613 103.958C72.7321 104.461 72.9937 104.95 73.2192 105.475C73.473 106.066 74.4622 105.644 74.2619 105.036C74.0291 104.33 73.6413 103.673 73.0778 103.183C72.8954 103.024 72.0754 102.255 71.8965 102.78Z" fill="#312A3C"/>
<path d="M76.6441 103.254C76.3203 104.11 75.8547 104.895 75.3846 105.677C74.9918 106.331 76.0194 106.928 76.4072 106.273C76.9427 105.371 77.1947 104.378 77.3177 103.345C77.3667 102.935 76.7699 102.921 76.6441 103.254Z" fill="#312A3C"/>
<path d="M78.6924 112.704C78.5598 113.093 79.083 113.558 79.2572 113.881C79.528 114.384 79.7896 114.873 80.0151 115.398C80.2689 115.989 81.2581 115.568 81.0578 114.96C80.825 114.254 80.4372 113.597 79.8737 113.107C79.6913 112.948 78.8713 112.179 78.6924 112.704Z" fill="#312A3C"/>
<path d="M83.44 113.178C83.1162 114.034 82.6511 114.819 82.1805 115.601C81.7876 116.255 82.8153 116.852 83.2031 116.197C83.7386 115.295 83.9906 114.302 84.1136 113.269C84.1626 112.86 83.5658 112.845 83.44 113.178Z" fill="#312A3C"/>
<path d="M65.8748 116.873C65.7422 117.262 66.2654 117.726 66.4396 118.051C66.7104 118.553 66.972 119.042 67.1974 119.568C67.4512 120.159 68.4405 119.737 68.2401 119.129C68.0074 118.423 67.6195 117.766 67.0561 117.276C66.8736 117.117 66.0536 116.348 65.8748 116.873Z" fill="#312A3C"/>
<path d="M70.6224 117.347C70.2986 118.203 69.8335 118.989 69.3629 119.771C68.97 120.424 69.9977 121.021 70.3855 120.367C70.921 119.464 71.173 118.471 71.296 117.438C71.345 117.029 70.7486 117.014 70.6224 117.347Z" fill="#312A3C"/>
<path d="M58.6204 124.749C58.4878 125.138 59.011 125.603 59.1852 125.927C59.456 126.43 59.7176 126.919 59.943 127.444C60.1968 128.035 61.1861 127.613 60.9857 127.006C60.753 126.299 60.3651 125.643 59.8017 125.152C59.6192 124.993 58.7992 124.224 58.6204 124.749Z" fill="#312A3C"/>
<path d="M63.368 125.223C63.0442 126.079 62.5791 126.865 62.1085 127.647C61.7156 128.3 62.7433 128.897 63.1311 128.243C63.6666 127.34 63.9186 126.347 64.0416 125.314C64.0906 124.905 63.4937 124.89 63.368 125.223Z" fill="#312A3C"/>
<path d="M68.5506 127.269C68.418 127.659 68.9412 128.123 69.1154 128.447C69.3861 128.95 69.6477 129.439 69.8732 129.964C70.127 130.555 71.1162 130.134 70.9159 129.526C70.6831 128.82 70.2953 128.163 69.7319 127.672C69.5494 127.514 68.7294 126.744 68.5506 127.269Z" fill="#312A3C"/>
<path d="M73.2981 127.743C72.9744 128.6 72.5092 129.385 72.0387 130.167C71.6458 130.821 72.6734 131.417 73.0613 130.763C73.5968 129.86 73.8488 128.868 73.9718 127.834C74.0207 127.425 73.4239 127.411 73.2981 127.743Z" fill="#312A3C"/>
<path d="M148.459 141.674C141.772 129.517 127.336 110.158 131.132 110.305C131.132 110.305 141.552 95.3053 145.255 100.198C147.451 103.098 154.571 113.651 160.807 125.641L148.459 141.674Z" fill="#57B031"/>
<path d="M140.151 103.583C140.019 103.973 140.542 104.437 140.716 104.761C140.987 105.264 141.248 105.753 141.474 106.278C141.728 106.869 142.717 106.448 142.517 105.84C142.284 105.134 141.896 104.477 141.332 103.986C141.15 103.828 140.33 103.058 140.151 103.583Z" fill="#312A3C"/>
<path d="M144.899 104.057C144.575 104.914 144.11 105.699 143.64 106.481C143.247 107.134 144.275 107.731 144.662 107.077C145.198 106.174 145.45 105.182 145.573 104.148C145.622 103.739 145.025 103.725 144.899 104.057Z" fill="#312A3C"/>
<path d="M136.014 116.074C135.882 116.463 136.405 116.928 136.579 117.252C136.85 117.755 137.111 118.244 137.337 118.769C137.591 119.36 138.58 118.938 138.38 118.331C138.147 117.624 137.759 116.968 137.196 116.477C137.013 116.318 136.193 115.549 136.014 116.074Z" fill="#312A3C"/>
<path d="M140.762 116.548C140.438 117.404 139.973 118.19 139.503 118.972C139.11 119.625 140.138 120.222 140.525 119.568C141.061 118.665 141.313 117.673 141.436 116.639C141.484 116.229 140.888 116.215 140.762 116.548Z" fill="#312A3C"/>
<path d="M147.266 112.183C147.133 112.573 147.656 113.037 147.831 113.361C148.101 113.864 148.363 114.353 148.589 114.878C148.842 115.469 149.832 115.048 149.631 114.44C149.398 113.734 149.011 113.077 148.447 112.586C148.265 112.428 147.445 111.658 147.266 112.183Z" fill="#312A3C"/>
<path d="M152.013 112.658C151.69 113.514 151.225 114.299 150.754 115.081C150.361 115.735 151.389 116.332 151.777 115.677C152.312 114.774 152.564 113.782 152.687 112.748C152.736 112.339 152.139 112.325 152.013 112.658Z" fill="#312A3C"/>
<path d="M143.612 125.714C143.48 126.104 144.003 126.568 144.177 126.892C144.448 127.395 144.71 127.884 144.935 128.409C145.189 129.001 146.178 128.579 145.978 127.971C145.745 127.265 145.357 126.608 144.794 126.117C144.611 125.959 143.791 125.189 143.612 125.714Z" fill="#312A3C"/>
<path d="M148.36 126.189C148.036 127.045 147.571 127.83 147.1 128.612C146.708 129.266 147.735 129.863 148.123 129.208C148.659 128.305 148.911 127.313 149.034 126.279C149.082 125.87 148.486 125.856 148.36 126.189Z" fill="#312A3C"/>
<path d="M152.671 121.865C152.538 122.254 153.061 122.719 153.236 123.042C153.506 123.545 153.768 124.035 153.993 124.56C154.247 125.151 155.236 124.729 155.036 124.121C154.803 123.415 154.415 122.758 153.852 122.268C153.67 122.109 152.85 121.34 152.671 121.865Z" fill="#312A3C"/>
<path d="M157.419 122.339C157.095 123.195 156.63 123.981 156.159 124.763C155.766 125.416 156.794 126.013 157.182 125.359C157.717 124.456 157.969 123.463 158.092 122.43C158.141 122.021 157.545 122.006 157.419 122.339Z" fill="#312A3C"/>
<path d="M122.345 92.6756C118.982 88.6523 118.878 78.8762 118.767 71.7366C114.672 71.7626 103.614 71.7626 99.519 71.7366C99.4079 78.8762 99.3045 88.6523 95.9413 92.6756C92.3535 96.968 73.1387 101.768 73.7798 102.372C78.5151 106.72 93.4159 126.662 108.73 126.662C124.044 126.662 139.771 106.72 144.506 102.372C145.148 101.768 125.933 96.9675 122.345 92.6756Z" fill="#CCC4C4"/>
<path d="M145.493 101.183C145.919 97.169 128.247 91.5209 123.483 91.7699C123.483 98.2492 94.8033 98.2492 94.8033 91.7699C90.0398 91.5214 72.3675 97.169 72.7937 101.183C74.4552 116.989 74.9729 185.815 75.4357 193.764C75.4357 202.49 142.851 202.49 142.851 193.764C143.314 185.814 143.831 116.989 145.493 101.183Z" fill="#57B031"/>
<path d="M77.5775 110.644C77.4448 111.034 77.968 111.498 78.1423 111.822C78.413 112.325 78.6746 112.814 78.9001 113.339C79.1539 113.93 80.1431 113.509 79.9428 112.901C79.71 112.195 79.3222 111.538 78.7587 111.047C78.5763 110.889 77.7563 110.12 77.5775 110.644Z" fill="#312A3C"/>
<path d="M82.3255 111.119C82.0017 111.975 81.5366 112.76 81.066 113.542C80.6731 114.196 81.7008 114.793 82.0886 114.138C82.6241 113.235 82.8761 112.243 82.9991 111.209C83.0476 110.8 82.4513 110.786 82.3255 111.119Z" fill="#312A3C"/>
<path d="M90.4678 104.437C90.3352 104.827 90.8584 105.291 91.0326 105.615C91.3034 106.118 91.565 106.607 91.7904 107.132C92.0443 107.723 93.0335 107.302 92.8332 106.694C92.6004 105.987 92.2126 105.331 91.6491 104.84C91.4671 104.682 90.6471 103.913 90.4678 104.437Z" fill="#312A3C"/>
<path d="M95.2159 104.912C94.8921 105.768 94.427 106.553 93.9564 107.336C93.5635 107.989 94.5912 108.586 94.979 107.932C95.5145 107.028 95.7665 106.036 95.8895 105.003C95.9385 104.593 95.3416 104.579 95.2159 104.912Z" fill="#312A3C"/>
<path d="M92.9246 115.661C92.792 116.051 93.3152 116.515 93.4894 116.839C93.7602 117.342 94.0218 117.831 94.2472 118.356C94.501 118.947 95.4903 118.526 95.2899 117.918C95.0572 117.212 94.6693 116.555 94.1059 116.064C93.9234 115.906 93.1034 115.137 92.9246 115.661Z" fill="#312A3C"/>
<path d="M97.6722 116.136C97.3484 116.992 96.8833 117.777 96.4127 118.559C96.0198 119.213 97.0475 119.81 97.4353 119.155C97.9708 118.253 98.2228 117.26 98.3458 116.227C98.3948 115.817 97.7984 115.803 97.6722 116.136Z" fill="#312A3C"/>
<path d="M83.3196 123.797C83.187 124.187 83.7102 124.652 83.8844 124.975C84.1552 125.478 84.4168 125.968 84.6422 126.492C84.8961 127.084 85.8853 126.662 85.685 126.054C85.4522 125.348 85.0644 124.691 84.5009 124.201C84.3185 124.042 83.4985 123.273 83.3196 123.797Z" fill="#312A3C"/>
<path d="M88.0672 124.272C87.7434 125.128 87.2783 125.913 86.8077 126.695C86.4148 127.349 87.4425 127.946 87.8303 127.291C88.3658 126.389 88.6178 125.396 88.7408 124.363C88.7898 123.954 88.1934 123.939 88.0672 124.272Z" fill="#312A3C"/>
<path d="M97.2479 133.68C97.1152 134.069 97.6384 134.534 97.8127 134.858C98.0834 135.361 98.345 135.85 98.5705 136.375C98.8243 136.966 99.8135 136.545 99.6132 135.937C99.3804 135.23 98.9926 134.574 98.4291 134.083C98.2467 133.924 97.4267 133.155 97.2479 133.68Z" fill="#312A3C"/>
<path d="M101.995 134.154C101.672 135.011 101.207 135.796 100.736 136.578C100.343 137.231 101.371 137.829 101.759 137.174C102.294 136.271 102.546 135.279 102.669 134.245C102.718 133.836 102.122 133.821 101.995 134.154Z" fill="#312A3C"/>
<path d="M79.4441 138.51C79.3115 138.9 79.8347 139.364 80.009 139.688C80.2797 140.191 80.5413 140.68 80.7668 141.205C81.0206 141.797 82.0098 141.375 81.8095 140.767C81.5767 140.061 81.1889 139.404 80.6254 138.914C80.443 138.755 79.623 137.986 79.4441 138.51Z" fill="#312A3C"/>
<path d="M84.1919 138.984C83.8682 139.841 83.403 140.626 82.9325 141.408C82.5396 142.062 83.5672 142.658 83.955 142.004C84.4906 141.101 84.7426 140.109 84.8656 139.075C84.9145 138.666 84.3177 138.652 84.1919 138.984Z" fill="#312A3C"/>
<path d="M88.8631 146.001C88.7305 146.39 89.2537 146.855 89.4279 147.178C89.6986 147.681 89.9602 148.171 90.1857 148.696C90.4395 149.287 91.4287 148.865 91.2284 148.257C90.9956 147.551 90.6078 146.894 90.0444 146.404C89.8619 146.245 89.0415 145.476 88.8631 146.001Z" fill="#312A3C"/>
<path d="M93.6106 146.475C93.2869 147.331 92.8217 148.117 92.3512 148.899C91.9583 149.552 92.9859 150.149 93.3737 149.495C93.9093 148.592 94.1613 147.599 94.2843 146.566C94.3332 146.157 93.7364 146.142 93.6106 146.475Z" fill="#312A3C"/>
<path d="M110.263 143.691C110.13 144.08 110.654 144.545 110.828 144.869C111.099 145.372 111.36 145.861 111.586 146.386C111.839 146.977 112.829 146.556 112.628 145.948C112.396 145.241 112.008 144.585 111.444 144.094C111.262 143.935 110.442 143.166 110.263 143.691Z" fill="#312A3C"/>
<path d="M115.011 144.165C114.687 145.022 114.222 145.807 113.752 146.589C113.359 147.242 114.386 147.84 114.774 147.185C115.31 146.282 115.562 145.29 115.685 144.256C115.733 143.847 115.137 143.832 115.011 144.165Z" fill="#312A3C"/>
<path d="M119.704 157.745C119.571 158.134 120.094 158.599 120.268 158.923C120.539 159.426 120.801 159.915 121.026 160.44C121.28 161.031 122.269 160.61 122.069 160.002C121.836 159.295 121.448 158.639 120.885 158.148C120.703 157.989 119.882 157.22 119.704 157.745Z" fill="#312A3C"/>
<path d="M124.452 158.219C124.128 159.075 123.662 159.861 123.192 160.643C122.799 161.296 123.827 161.893 124.215 161.239C124.75 160.336 125.002 159.343 125.125 158.31C125.174 157.901 124.577 157.886 124.452 158.219Z" fill="#312A3C"/>
<path d="M126.21 142.035C126.077 142.424 126.6 142.888 126.775 143.213C127.045 143.716 127.307 144.205 127.532 144.73C127.786 145.321 128.775 144.899 128.575 144.291C128.342 143.585 127.955 142.929 127.391 142.438C127.209 142.279 126.389 141.51 126.21 142.035Z" fill="#312A3C"/>
<path d="M130.957 142.509C130.634 143.366 130.168 144.151 129.698 144.933C129.305 145.586 130.333 146.184 130.72 145.529C131.256 144.626 131.508 143.634 131.631 142.6C131.68 142.191 131.083 142.176 130.957 142.509Z" fill="#312A3C"/>
<path d="M118.95 133.095C118.817 133.484 119.341 133.949 119.515 134.273C119.786 134.776 120.047 135.265 120.273 135.79C120.526 136.381 121.516 135.959 121.315 135.352C121.083 134.645 120.695 133.989 120.131 133.498C119.949 133.339 119.129 132.57 118.95 133.095Z" fill="#312A3C"/>
<path d="M123.698 133.569C123.374 134.426 122.909 135.211 122.438 135.993C122.045 136.646 123.073 137.243 123.461 136.589C123.996 135.686 124.248 134.694 124.371 133.66C124.42 133.251 123.823 133.236 123.698 133.569Z" fill="#312A3C"/>
<path d="M132.923 125.147C132.791 125.536 133.314 126.001 133.488 126.325C133.759 126.828 134.021 127.317 134.246 127.842C134.5 128.433 135.489 128.011 135.289 127.404C135.056 126.697 134.668 126.041 134.105 125.55C133.922 125.391 133.102 124.622 132.923 125.147Z" fill="#312A3C"/>
<path d="M137.671 125.621C137.347 126.477 136.882 127.263 136.411 128.045C136.019 128.698 137.046 129.295 137.434 128.641C137.97 127.738 138.222 126.745 138.345 125.712C138.394 125.303 137.797 125.288 137.671 125.621Z" fill="#312A3C"/>
<path d="M107.983 121.005C107.851 121.394 108.374 121.859 108.548 122.183C108.819 122.686 109.08 123.175 109.306 123.7C109.56 124.291 110.549 123.87 110.349 123.262C110.116 122.555 109.728 121.899 109.165 121.408C108.982 121.249 108.162 120.48 107.983 121.005Z" fill="#312A3C"/>
<path d="M112.731 121.479C112.407 122.335 111.942 123.121 111.471 123.903C111.078 124.556 112.106 125.153 112.494 124.499C113.029 123.596 113.281 122.604 113.404 121.57C113.453 121.161 112.857 121.146 112.731 121.479Z" fill="#312A3C"/>
<path d="M109.85 107.749C109.717 108.139 110.24 108.603 110.414 108.927C110.685 109.43 110.947 109.919 111.172 110.444C111.426 111.035 112.415 110.614 112.215 110.006C111.982 109.3 111.594 108.643 111.031 108.152C110.848 107.994 110.028 107.225 109.85 107.749Z" fill="#312A3C"/>
<path d="M114.598 108.224C114.274 109.08 113.809 109.865 113.338 110.647C112.945 111.301 113.973 111.898 114.361 111.243C114.896 110.34 115.148 109.348 115.271 108.314C115.32 107.905 114.723 107.891 114.598 108.224Z" fill="#312A3C"/>
<path d="M80.8633 97.4972C80.7307 97.8866 81.2539 98.3508 81.4281 98.675C81.6989 99.178 81.9605 99.6673 82.1859 100.192C82.4398 100.783 83.429 100.362 83.2287 99.7539C82.9959 99.0476 82.6081 98.3909 82.0446 97.9003C81.8622 97.7416 81.0422 96.9723 80.8633 97.4972Z" fill="#312A3C"/>
<path d="M85.6109 97.9716C85.2871 98.8279 84.822 99.6132 84.3514 100.395C83.9585 101.049 84.9862 101.646 85.374 100.991C85.9095 100.088 86.1615 99.096 86.2845 98.0623C86.3335 97.6533 85.7367 97.6387 85.6109 97.9716Z" fill="#312A3C"/>
<path d="M123.753 114.522C123.62 114.911 124.144 115.375 124.318 115.699C124.589 116.202 124.85 116.691 125.076 117.217C125.329 117.808 126.319 117.386 126.118 116.778C125.886 116.072 125.498 115.415 124.934 114.925C124.752 114.766 123.932 113.997 123.753 114.522Z" fill="#312A3C"/>
<path d="M128.501 114.996C128.177 115.852 127.712 116.637 127.241 117.419C126.848 118.073 127.876 118.67 128.264 118.015C128.799 117.112 129.051 116.12 129.174 115.086C129.223 114.677 128.627 114.663 128.501 114.996Z" fill="#312A3C"/>
<path d="M123.753 99.8134C123.62 100.203 124.144 100.667 124.318 100.991C124.589 101.494 124.85 101.983 125.076 102.508C125.329 103.099 126.319 102.678 126.118 102.07C125.886 101.364 125.498 100.707 124.934 100.216C124.752 100.058 123.932 99.289 123.753 99.8134Z" fill="#312A3C"/>
<path d="M128.501 100.287C128.177 101.144 127.712 101.929 127.241 102.711C126.848 103.365 127.876 103.961 128.264 103.307C128.799 102.404 129.051 101.412 129.174 100.378C129.223 99.9692 128.627 99.9546 128.501 100.287Z" fill="#312A3C"/>
<path d="M135.38 107.351C135.247 107.74 135.77 108.205 135.945 108.529C136.215 109.032 136.477 109.521 136.702 110.046C136.956 110.637 137.945 110.216 137.745 109.608C137.512 108.901 137.124 108.245 136.561 107.754C136.379 107.595 135.559 106.827 135.38 107.351Z" fill="#312A3C"/>
<path d="M140.128 107.825C139.804 108.682 139.339 109.467 138.868 110.249C138.475 110.902 139.503 111.499 139.891 110.845C140.426 109.942 140.678 108.949 140.801 107.916C140.85 107.507 140.254 107.492 140.128 107.825Z" fill="#312A3C"/>
<path d="M75.1137 98.231C73.7403 103.703 73.2166 109.42 73.079 115.049C72.9409 120.708 72.9839 126.453 73.7472 132.069C73.7741 132.267 74.1002 132.218 74.0947 132.022C73.7718 120.811 72.8398 109.342 75.3309 98.2903C75.3625 98.1503 75.1493 98.0906 75.1137 98.231Z" fill="#312A3C"/>
<path d="M144.424 99.2547C145.015 104.929 145.044 110.618 144.738 116.311C144.432 121.995 143.446 127.731 143.513 133.42C143.517 133.714 144.002 133.806 144.05 133.492C144.913 127.861 145.154 122.001 145.436 116.311C145.719 110.586 145.462 104.9 144.677 99.221C144.657 99.0792 144.409 99.1111 144.424 99.2547Z" fill="#312A3C"/>
<path d="M84.9728 123.156L82.7205 122.763C82.9121 121.671 83.1037 120.535 83.3004 119.369C85.2276 107.941 86.5694 95.2931 94.7255 88.9743C96.2758 87.7732 98.2263 87.5256 98.2263 87.5256C98.0869 88.4714 97.4004 90.113 97.4004 90.113C90.3218 95.0401 87.4122 108.74 85.5555 119.748C85.3579 120.919 85.1654 122.059 84.9728 123.156Z" fill="#312A3C"/>
<path d="M133.274 123.156L135.526 122.763C135.335 121.671 135.143 120.535 134.946 119.369C133.019 107.941 131.677 95.2931 123.521 88.9743C121.971 87.7732 120.02 87.5256 120.02 87.5256C120.16 88.4714 120.846 90.113 120.846 90.113C127.925 95.0401 130.834 108.74 132.691 119.748C132.889 120.919 133.081 122.059 133.274 123.156Z" fill="#312A3C"/>
<path d="M143.245 201.5C143.185 201.368 148.18 149.399 148.009 147.916L135.305 121.761L83.0682 121.731L70.4179 148.25C70.2678 149.618 75.277 201.378 75.2221 201.5C87.3781 201.78 131.089 201.78 143.245 201.5Z" fill="#312A3C"/>
<path d="M109.101 163.144C117.034 163.144 123.466 156.731 123.466 148.821C123.466 140.91 117.034 134.497 109.101 134.497C101.167 134.497 94.7354 140.91 94.7354 148.821C94.7354 156.731 101.167 163.144 109.101 163.144Z" fill="white"/>
<path d="M109.101 155.743C120.841 155.743 130.358 152.644 130.358 148.821C130.358 144.998 120.841 141.898 109.101 141.898C97.3602 141.898 87.8428 144.998 87.8428 148.821C87.8428 152.644 97.3602 155.743 109.101 155.743Z" fill="#57B031"/>
<path d="M93.6689 56.4874C90.2595 56.5731 86.9319 54.2133 85.8952 50.9734C85.5778 49.9816 85.4685 48.8635 85.9203 47.9246C86.3717 46.9857 87.5155 46.3332 88.4942 46.6961C88.159 43.9524 89.3563 41.0714 91.54 39.3687C93.7238 37.666 96.8163 37.2013 99.4062 38.1872C100.676 35.8771 103.159 34.2765 105.793 34.0713C108.427 33.8661 111.13 35.0627 112.744 37.1479C114.19 35.0535 117.022 34.0216 119.481 34.6924C121.941 35.3632 123.852 37.6888 124.027 40.2255C126.076 40.3491 127.994 41.7472 128.734 43.6569C129.474 45.5671 128.997 47.8872 127.562 49.3523C129.65 49.1394 131.799 50.47 132.534 52.4299C133.268 54.3898 132.521 56.7997 130.806 58.0045C129.538 58.8941 127.931 59.1171 126.391 59.2863C117.628 60.248 108.765 60.2954 99.9929 59.4286C98.0561 59.237 95.7676 58.7423 95.0565 56.9356C94.7555 56.1718 94.4912 55.035 93.6767 55.1536" fill="#312A3C"/>
<path d="M89.4106 52.5284C87.7043 51.9115 85.8338 53.3105 85.1478 54.9863C84.4499 56.6913 84.6104 58.7214 85.5681 60.2955C86.5257 61.8701 88.2567 62.9503 90.0957 63.1213C89.0913 64.2153 88.2046 65.4688 87.8373 66.9057C87.4706 68.343 87.6979 69.9914 88.699 71.0881C89.9731 72.4844 92.0878 72.6672 93.9802 72.6148C95.2032 72.581 96.5651 72.421 97.3531 71.488C97.8196 70.9353 97.9988 70.2007 98.115 69.488C99.0951 63.4683 96.2431 56.9972 91.1329 53.6461" fill="#312A3C"/>
<path d="M127.435 55.8484C128.658 56.3194 129.902 56.8033 130.919 57.6268C131.937 58.4503 132.708 59.6847 132.643 60.9898C132.577 62.2949 131.466 63.5625 130.156 63.5042C132.114 64.133 132.797 66.8453 131.777 68.6264C130.759 70.4076 128.576 71.2589 126.52 71.2753C125.87 71.2803 125.209 71.2133 124.608 70.9684C124.054 70.7427 123.571 70.3752 123.112 69.9917C120.181 67.5416 117.897 64.0473 117.81 60.2342" fill="#312A3C"/>
<path d="M89.718 61.8819C89.718 73.9139 92.821 80.9723 109.101 80.9723C125.381 80.9723 128.484 73.9144 128.484 61.8819C128.484 36.9619 89.718 33.7595 89.718 61.8819Z" fill="#CCC4C4"/>
<path d="M99.3399 79.8323C105.118 82.5482 111.845 82.3895 117.882 80.6266C118.335 80.4944 118.14 79.7821 117.687 79.9207C111.425 81.84 105.626 81.327 99.3682 79.7652C99.3293 79.7556 99.301 79.8136 99.3399 79.8323Z" fill="#312A3C"/>
<path d="M103.856 65.6764C103.856 66.7215 103.346 67.5683 102.717 67.5683C102.089 67.5683 101.579 66.7215 101.579 65.6764C101.579 64.6317 102.089 63.7844 102.717 63.7844C103.346 63.7844 103.856 64.6317 103.856 65.6764Z" fill="#312A3C"/>
<path d="M116.18 65.6764C116.18 66.7215 115.67 67.5683 115.041 67.5683C114.413 67.5683 113.903 66.7215 113.903 65.6764C113.903 64.6317 114.413 63.7844 115.041 63.7844C115.67 63.7844 116.18 64.6317 116.18 65.6764Z" fill="#312A3C"/>
<path d="M113.664 60.9333C114.314 60.6771 114.995 60.5836 115.686 60.7181C116.292 60.8357 116.739 61.2092 117.304 61.3884C117.508 61.4532 117.723 61.1964 117.594 61.0122C116.753 59.8093 114.64 59.9511 113.466 60.4655C113.203 60.5804 113.393 61.04 113.664 60.9333Z" fill="#312A3C"/>
<path d="M104.735 60.4651C103.561 59.9507 101.447 59.8093 100.607 61.0118C100.479 61.1951 100.692 61.4532 100.897 61.388C101.462 61.2088 101.91 60.8353 102.514 60.7177C103.206 60.5832 103.886 60.6767 104.537 60.9329C104.805 61.0387 105.001 60.5818 104.735 60.4651Z" fill="#312A3C"/>
<path d="M106.298 74.2148C107.471 75.6248 110.462 75.9599 111.209 73.8851C111.302 73.627 110.956 73.4797 110.78 73.6357C110.177 74.1687 109.798 74.7315 108.956 74.9056C108.017 75.0994 107.108 74.7246 106.453 74.0593C106.352 73.9572 106.208 74.1081 106.298 74.2148Z" fill="#312A3C"/>
<path d="M109.092 62.1094C109.063 63.5134 108.881 64.9457 108.522 66.3073C108.319 67.0771 108.044 67.8413 107.7 68.5582C107.55 68.8696 107.014 69.55 106.978 69.9184C106.88 70.9394 108.156 71.2362 108.969 71.5363C109.066 71.5719 109.133 71.415 109.04 71.3689C108.705 71.203 108.232 71.0379 107.964 70.7698C107.144 69.9471 107.551 69.7406 107.91 69.0338C108.242 68.3808 108.522 67.7018 108.741 67.0027C109.253 65.3739 109.335 63.8007 109.128 62.1089C109.126 62.0866 109.092 62.0848 109.092 62.1094Z" fill="#312A3C"/>
<path d="M89.4239 65.6174C88.9135 65.5339 89.4774 66.4003 89.9709 66.2457C91.0726 65.9014 91.77 64.7614 91.9342 63.6219C92.0984 62.4824 91.8313 61.3296 91.566 60.2092C94.5657 60.7906 97.6024 57.5735 96.8386 54.6232C97.7199 55.9944 99.5899 56.6396 101.133 56.1047C102.675 55.5699 103.74 53.9073 103.578 52.2867C106.129 53.8749 109.89 53.0391 111.524 50.521C111.768 53.4089 115.449 55.3838 118.001 53.9976C117.044 56.5931 120.009 59.6565 122.644 58.7965C122.921 60.6634 123.268 62.6716 124.621 63.9908C125.975 65.3096 128.691 65.3237 129.419 63.5813C129.781 62.7122 130.643 58.1216 130.358 57.2238C128.436 51.1626 123.141 44.2542 117.512 41.2683C111.883 38.2824 104.854 37.8625 99.0722 40.541C91.8642 43.8798 90.0285 50.7107 87.8433 57.066C87.2676 58.7409 89.4239 65.6174 89.4239 65.6174Z" fill="#312A3C"/>
<path d="M127.986 56.4741C129.901 55.8599 131.665 57.1116 132.128 58.8982C133.281 63.3483 129.05 66.6128 126.024 69.0173C125.524 67.1609 125.049 57.4166 127.986 56.4741Z" fill="#CCC4C4"/>
<path d="M127.197 63.6114C127.421 62.5284 127.69 61.4053 128.34 60.4864C129.024 59.5202 129.919 59.263 130.976 58.8836C131.174 58.8125 131.196 58.5225 130.976 58.46C129.924 58.1618 128.894 58.9037 128.252 59.6935C127.37 60.7801 127.098 62.1837 126.914 63.533C126.889 63.7145 127.157 63.8002 127.197 63.6114Z" fill="#312A3C"/>
<path d="M128.71 60.2243C129.142 60.4441 129.483 60.797 129.658 61.253C129.729 61.4395 129.772 61.6379 129.78 61.8372C129.789 62.0538 129.745 62.1814 129.857 62.3743C129.926 62.4911 130.107 62.5248 130.203 62.4186C130.539 62.046 130.255 61.3442 130.033 60.9635C129.757 60.491 129.334 60.1472 128.823 59.9566C128.668 59.8987 128.563 60.149 128.71 60.2243Z" fill="#312A3C"/>
<path d="M90.2161 56.4741C88.3012 55.8599 86.5373 57.1116 86.074 58.8982C84.9206 63.3483 89.1509 66.6128 92.178 69.0173C92.6774 67.1609 93.1526 57.4166 90.2161 56.4741Z" fill="#CCC4C4"/>
<path d="M91.288 63.5338C91.1046 62.1863 90.8339 60.7777 89.9494 59.6943C89.3055 58.9054 88.2792 58.1621 87.2255 58.4608C87.006 58.5233 87.0275 58.8133 87.2255 58.8844C88.2907 59.267 89.1706 59.5105 89.8616 60.4873C90.5115 61.4061 90.7799 62.5288 91.0049 63.6122C91.0443 63.8001 91.3127 63.7144 91.288 63.5338Z" fill="#312A3C"/>
<path d="M89.3782 59.9566C88.8665 60.1476 88.4444 60.4905 88.1681 60.9634C87.9445 61.3465 87.6605 62.045 87.9976 62.4185C88.0936 62.5248 88.2747 62.491 88.3433 62.3743C88.4444 62.2024 88.4174 62.0952 88.4188 61.8978C88.4201 61.678 88.464 61.4586 88.5427 61.253C88.7174 60.7965 89.0586 60.444 89.4908 60.2242C89.6371 60.1499 89.5356 59.8977 89.3782 59.9566Z" fill="#312A3C"/>
<path d="M213.127 115.568C213.855 126.563 203.482 170.398 197.283 168.927C187.016 166.492 183.935 150.904 181.142 134.908C183.716 132.189 185.759 129.915 189.467 129.185C189.467 129.185 192.76 141.592 193.463 144.38C193.463 144.38 203.58 115.004 205.022 112.2C207.214 107.941 212.643 108.256 213.127 115.568Z" fill="#CCC4C4"/>
<path d="M193.433 144.369C195.642 145.815 197.24 149.484 198.545 151.711C200.028 154.237 200.898 156.813 201.559 159.644C201.699 160.245 202.697 160.127 202.654 159.496C202.439 156.379 200.984 153.416 199.331 150.809C197.939 148.613 195.963 145.302 193.498 144.258C193.424 144.227 193.362 144.322 193.433 144.369Z" fill="#312A3C"/>
<path d="M205.493 110.037C201.508 116.085 197.256 122.344 194.872 129.178C194.726 129.598 194.581 130.031 194.603 130.475C194.633 131.08 194.968 131.623 195.3 132.132C199.046 137.879 203.593 143.106 208.771 147.614C214.789 138.577 216.239 127.335 217.042 116.517C217.181 114.642 217.3 112.714 216.727 110.922C216.154 109.131 214.726 107.486 212.86 107.215L205.493 110.037Z" fill="#0A2533"/>
<path d="M267.203 116.944C266.989 118.896 276.979 170.161 283.312 169.465C293.802 168.311 296.185 154.941 300.841 138.193C298.623 135.178 298.497 136.278 294.908 135.097C294.908 135.097 289.331 145.85 288.288 148.531C288.288 148.531 279.194 116.827 278.109 113.867C276.46 109.371 267.998 109.659 267.203 116.944Z" fill="#CCC4C4"/>
<path d="M288.039 148.335C284.851 151.544 281.738 156.73 282.386 161.442C282.428 161.747 282.894 161.706 282.965 161.442C283.527 159.359 283.631 157.243 284.394 155.195C285.291 152.785 286.629 150.542 288.282 148.578C288.422 148.412 288.198 148.177 288.039 148.335Z" fill="#312A3C"/>
<path d="M276.624 110.037C280.609 116.085 284.862 122.344 287.246 129.178C287.392 129.598 287.537 130.031 287.515 130.475C287.485 131.08 287.15 131.623 286.818 132.132C283.072 137.879 278.524 143.106 273.346 147.614C267.328 138.577 265.879 127.335 265.075 116.517C264.936 114.642 264.817 112.714 265.39 110.922C265.963 109.131 267.391 107.486 269.257 107.215L276.624 110.037Z" fill="#0A2533"/>
<path d="M254.371 103.149C251.008 99.1257 250.905 89.3496 250.793 82.21C246.698 82.236 235.641 82.236 231.545 82.21C231.434 89.3496 231.331 99.1257 227.967 103.149C224.38 107.441 205.165 112.241 205.806 112.845C210.541 117.193 225.442 137.135 240.756 137.135C256.07 137.135 271.797 117.194 276.533 112.845C277.174 112.241 257.959 107.441 254.371 103.149Z" fill="#CCC4C4"/>
<path d="M277.518 111.656C277.945 107.642 260.272 101.994 255.509 102.243C250.084 114.729 232.34 114.77 226.858 102.309L226.829 102.243C222.065 101.994 204.393 107.642 204.819 111.656C205.861 121.564 210.478 150.393 209.39 173.335C208.743 186.991 201.394 198.562 201.596 202.817C201.596 215.331 280.742 215.331 280.742 202.817C280.939 198.675 273.633 187.6 273.01 174.418C271.917 151.308 276.461 121.721 277.518 111.656Z" fill="#57B031"/>
<path d="M207.104 108.695C205.554 114.924 205.936 121.742 206.416 128.082C206.912 134.628 207.578 141.185 208.544 147.677C208.583 147.941 209.014 147.876 209.007 147.615C208.85 141.198 207.777 134.812 207.261 128.415C206.74 121.965 205.993 115.164 207.393 108.775C207.434 108.587 207.15 108.507 207.104 108.695Z" fill="#312A3C"/>
<path d="M276.407 109.729C277.036 115.972 277.035 122.255 276.612 128.513C276.18 134.906 274.715 141.117 274.069 147.463C274.026 147.884 274.669 147.936 274.785 147.559C276.636 141.55 277.154 134.766 277.541 128.513C277.931 122.214 277.63 115.93 276.744 109.683C276.717 109.494 276.388 109.537 276.407 109.729Z" fill="#312A3C"/>
<path d="M221.046 49.3802C218.723 52.9411 216.32 56.8335 212.392 58.4769C196.11 65.2882 207.139 70.6307 197.435 82.4092C195.461 84.8064 193.154 86.9824 191.704 89.7275C188.662 95.4877 190.143 102.996 194.446 107.893C198.749 112.789 205.409 115.225 211.937 115.363C214.574 115.419 217.258 115.121 219.686 114.093C223.043 112.671 225.69 109.949 227.801 106.982C231.566 101.691 233.924 94.879 232.023 88.6746C231.316 86.3673 230.036 84.1579 230.073 81.7452C230.112 79.2632 231.564 77.0019 233.326 75.2486C235.089 73.4953 237.186 72.1113 239.005 70.4164C244.219 65.5577 247.167 57.3999 245.926 50.3068C244.859 44.2032 237.001 40.3819 231.207 41.1079C226.524 41.6952 223.445 45.7016 221.046 49.3802Z" fill="#312A3C"/>
<path d="M265.187 76.2801C263 87.9683 258.702 94.2639 242.888 91.3222C227.073 88.3805 225.342 80.9632 227.529 69.2755C232.058 45.0674 270.298 48.9612 265.187 76.2801Z" fill="#CCC4C4"/>
<path d="M252.577 91.9785C246.471 93.5726 239.965 92.2028 234.42 89.3993C234.005 89.1891 234.323 88.5325 234.738 88.7491C240.472 91.745 246.199 92.2945 252.562 91.9082C252.601 91.9059 252.619 91.968 252.577 91.9785Z" fill="#312A3C"/>
<path d="M255.389 74.7206C255.199 75.7356 255.541 76.6504 256.151 76.7644C256.762 76.8779 257.411 76.1474 257.601 75.1323C257.791 74.1173 257.449 73.2025 256.839 73.0885C256.228 72.975 255.579 73.7055 255.389 74.7206Z" fill="#312A3C"/>
<path d="M243.417 72.4933C243.228 73.5083 243.569 74.4231 244.179 74.5366C244.79 74.6501 245.439 73.9196 245.629 72.9046C245.819 71.8895 245.478 70.9748 244.867 70.8612C244.256 70.7477 243.607 71.4782 243.417 72.4933Z" fill="#312A3C"/>
<path d="M246.723 68.3406C246.138 67.9739 245.494 67.7605 244.798 67.766C244.189 67.7706 243.686 68.0528 243.105 68.1249C242.895 68.1509 242.733 67.8627 242.892 67.7072C243.927 66.6908 245.953 67.2101 247 67.9219C247.235 68.0811 246.967 68.4933 246.723 68.3406Z" fill="#312A3C"/>
<path d="M255.483 69.4993C256.716 69.2121 258.795 69.456 259.393 70.7766C259.484 70.9782 259.23 71.1902 259.042 71.0894C258.527 70.8135 258.159 70.3699 257.593 70.1464C256.946 69.8911 256.268 69.8587 255.59 69.99C255.31 70.0438 255.203 69.5646 255.483 69.4993Z" fill="#312A3C"/>
<path d="M251.465 82.5737C250.069 83.7315 247.103 83.5167 246.754 81.3662C246.71 81.0986 247.073 81.0183 247.216 81.2016C247.705 81.8282 247.97 82.4433 248.757 82.7648C249.634 83.1228 250.585 82.923 251.342 82.395C251.459 82.3134 251.571 82.4862 251.465 82.5737Z" fill="#312A3C"/>
<path d="M250.951 70.3092C250.723 71.6781 250.641 73.1026 250.742 74.4903C250.798 75.2746 250.927 76.0671 251.131 76.825C251.22 77.1542 251.618 77.9121 251.585 78.2769C251.495 79.2865 250.201 79.3444 249.357 79.4889C249.255 79.5063 249.22 79.3416 249.318 79.3138C249.673 79.2131 250.164 79.1383 250.472 78.9262C251.419 78.2755 251.061 78.0015 250.841 77.25C250.637 76.5555 250.488 75.8455 250.402 75.1264C250.201 73.4519 250.407 71.9088 250.916 70.3024C250.922 70.2809 250.955 70.2855 250.951 70.3092Z" fill="#312A3C"/>
<path d="M229.876 63.8372C228.128 62.8942 226.187 63.7916 225.412 65.4437C223.483 69.5582 226.999 73.4939 229.502 76.3767C230.325 74.6635 232.557 65.2832 229.876 63.8372Z" fill="#CCC4C4"/>
<path d="M229.345 70.9128C229.324 69.8203 229.267 68.6807 228.802 67.6707C228.314 66.6082 227.491 66.1969 226.533 65.6374C226.354 65.5325 226.385 65.247 226.61 65.2261C227.686 65.1262 228.552 66.0332 229.032 66.9169C229.692 68.1322 229.701 69.5444 229.634 70.8887C229.625 71.0683 229.349 71.1035 229.345 70.9128Z" fill="#312A3C"/>
<path d="M228.491 67.3488C228.031 67.4843 227.635 67.7652 227.382 68.1769C227.279 68.3452 227.202 68.5299 227.158 68.7223C227.11 68.9311 227.13 69.0634 226.985 69.2303C226.897 69.3311 226.715 69.3315 226.641 69.2111C226.382 68.7884 226.786 68.1578 227.071 67.8285C227.425 67.4195 227.898 67.1619 228.43 67.0688C228.591 67.0401 228.647 67.3028 228.491 67.3488Z" fill="#312A3C"/>
<path d="M243.394 58.543C245.939 60.88 249.57 61.6347 253.027 61.7734C261.331 62.1067 263.784 73.5906 261.233 80.0585C260.166 82.7626 260.699 86.0289 262.57 88.2569C262.935 85.7968 265.182 84.1315 267.171 82.6294C273.744 77.6631 272.713 65.7903 269.582 58.7669C267.465 54.0195 262.382 48.9164 257.477 47.1631C250.703 44.7436 233.507 49.4641 243.394 58.543Z" fill="#312A3C"/>
<path d="M237.937 64.4276C236.112 66.647 233.464 68.5097 230.594 68.2858C230.222 68.2567 229.841 68.1887 229.525 67.9885C229.212 67.7902 228.99 67.4783 228.809 67.1554C227.857 65.4536 227.912 63.3706 228.261 61.4536C228.834 58.304 230.204 55.1973 232.633 53.1042C235.053 51.0189 240.298 49.1872 241.709 53.2132C242.94 56.7244 240.064 61.8398 237.937 64.4276Z" fill="#312A3C"/>
<path d="M343 175.939H0V228H343V175.939Z" fill="white"/>
<path d="M169.697 112.892C168.786 112.593 167.087 111.742 166.053 112.043C165.446 112.22 165.428 112.369 165.537 113.032C165.739 114.259 166.652 114.536 167.599 115.112C168.674 115.765 170.736 116.913 170.334 118.402C170.139 119.121 169.47 119.608 168.766 119.718C167.397 119.932 165.833 119.029 164.677 118.377C164.872 120.733 166.451 123.183 167.529 125.265C168.247 126.653 177.569 128.777 178.508 128.891C179.517 129.014 181.142 134.909 182.371 139.501C183.954 138.561 190.536 133.224 190.536 133.224C189.843 129.863 187.982 122.554 186.554 121.583C184.922 120.473 178.754 116.098 176.909 115.331C176.116 115.001 170.878 113.28 169.697 112.892Z" fill="#CCC4C4"/>
<path d="M172.135 119.087C172.967 119.283 173.83 119.625 174.688 119.371C175.48 119.138 176.17 118.731 177.015 118.57C178.091 118.363 179.328 118.332 180.121 119.2C180.327 119.425 180.061 119.717 179.812 119.55C178.289 118.533 176.498 119.384 174.929 119.868C174.673 119.947 174.359 120.105 174.083 120.059C173.436 119.953 172.801 119.32 172.119 119.169C172.067 119.157 172.083 119.075 172.135 119.087Z" fill="#312A3C"/>
<path d="M165.735 106.139C167.575 105.698 172.478 108.894 173.707 113.992C174.936 119.09 172.923 122.026 169.75 122.787C166.576 123.548 163.444 121.845 162.215 116.747C160.985 111.649 163.894 106.58 165.735 106.139Z" fill="#FFFCF8"/>
<path d="M163.671 117.964C163.413 116.816 163.551 115.562 163.33 114.397C163.165 113.531 162.974 112.546 162.366 112.007C160.895 110.701 160.664 115.993 160.875 117.096C161.686 121.34 165.627 123.279 166.059 122.863C166.508 122.43 164.153 119.298 163.671 117.964Z" fill="#CCC4C4"/>
<path d="M174.37 123.352C173.64 123.399 172.583 122.014 172.286 121.279C171.896 120.314 172.094 119.29 172.255 118.291C172.479 116.9 173.054 113.95 172.124 113.569C170.542 112.922 167.53 121.03 169.627 123.913C170.213 124.719 171.211 125.707 172.242 125.49C173.201 125.289 174.503 124.388 174.37 123.352Z" fill="#CCC4C4"/>
<path d="M169.911 117.416C170.046 115.637 171.637 112.164 170.722 111.507C169.347 110.519 167.379 115.439 166.519 117.737C165.663 120.022 165.52 120.724 166.79 122.797C167.252 123.551 169.035 125.999 170.156 125.976C170.829 125.962 171.524 124.824 171.645 124.301C171.86 123.373 171.202 122.582 170.876 121.774C170.153 119.984 170.017 118.434 169.911 117.416Z" fill="#CCC4C4"/>
<path d="M166.199 119.569C165.539 118.791 165.213 118.487 165.542 117.469C165.893 116.387 166.34 115.335 166.668 114.242C166.817 113.743 167.532 112.047 166.784 111.808C165.436 111.376 163.987 114.592 163.592 115.403C162.473 117.704 161.293 120.228 163.232 122.32C164.097 123.253 167.514 125.465 170.104 126.661C172.597 127.812 168.204 119.074 166.199 119.569Z" fill="#CCC4C4"/>
<path d="M170.745 114.865C169.995 116.125 168.777 118.064 169.27 119.569C169.775 121.116 170.951 122.344 171.68 123.766C171.79 123.98 171.531 124.272 171.329 124.069C170.242 122.967 168.903 120.828 168.704 119.242C168.514 117.718 169.701 115.928 170.465 114.729C170.571 114.563 170.849 114.691 170.745 114.865Z" fill="#312A3C"/>
<path d="M166.176 118.985C166.066 119.582 165.881 120.157 166.085 120.76C166.238 121.215 166.555 121.601 166.856 121.965C167.477 122.712 168.271 123.386 168.748 124.235C168.874 124.461 168.606 124.712 168.397 124.538C167.511 123.8 166.624 122.595 166.051 121.592C165.519 120.661 165.729 119.935 166.023 118.955C166.052 118.861 166.195 118.885 166.176 118.985Z" fill="#312A3C"/>
<path d="M163.63 115.623C162.961 117.184 162.455 118.961 162.503 120.676C162.51 120.928 162.141 120.95 162.113 120.701C161.92 118.949 162.746 117.098 163.56 115.589C163.584 115.545 163.65 115.577 163.63 115.623Z" fill="#312A3C"/>
<path d="M302.571 102.356L276.239 130.481L298.107 133.362L322.383 105.757L302.571 102.356Z" fill="#57B031"/>
<path d="M320.111 105.367L332.815 99.1553L304.527 130.409L298.107 133.362L320.111 105.367Z" fill="#57B031"/>
<path d="M320.111 105.367C320.111 105.367 319.373 99.5557 329.204 97.7554C331.611 99.1557 331.956 100.105 331.956 100.105L320.111 105.367Z" fill="#FFFCF8"/>
<path d="M320.111 105.367C320.111 105.367 311.348 99.7553 301.718 100.156C302.571 102.356 302.571 102.356 302.571 102.356L320.111 105.367Z" fill="#FFFCF8"/>
<path d="M301.718 100.156L274.433 129.361L276.239 130.481L302.571 102.356L301.718 100.156Z" fill="#E8E8EA"/>
<path d="M304.126 122.06C304.126 122.06 303.221 126.461 303.122 128.361C299.111 131.623 299.211 132.462 299.211 132.462L302.621 135.224C302.621 135.224 306.634 130.262 306.634 129.362C306.634 128.461 306.834 120.36 304.126 122.06Z" fill="#CCC4C4"/>
<path d="M303.121 135.729L301.818 139.563C301.818 139.563 299.11 142.464 298.508 146.865C297.906 151.266 289.38 146.865 289.38 146.865V135.016L303.121 135.729Z" fill="#CCC4C4"/>
<path d="M299.16 139.964C299.16 139.964 288.477 133.063 286.07 133.963C283.662 134.863 285.618 137.563 297.656 143.115C301.116 144.464 299.16 139.964 299.16 139.964Z" fill="#CCC4C4"/>
<path d="M302.571 132.962C302.571 132.962 291.888 126.061 289.48 126.961C287.073 127.861 289.029 130.561 301.066 136.113C304.527 137.463 302.571 132.962 302.571 132.962Z" fill="#CCC4C4"/>
<path d="M299.862 136.563C299.862 136.563 289.179 129.662 286.772 130.562C284.364 131.462 286.32 134.163 298.358 139.714C301.818 141.064 299.862 136.563 299.862 136.563Z" fill="#CCC4C4"/>
<path d="M286.691 133.141C288.555 134.677 290.605 135.862 292.805 136.857C294.978 137.839 297.18 139.049 299.44 139.795C299.616 139.852 299.679 139.616 299.556 139.521C297.696 138.094 295.2 137.357 293.069 136.406C290.88 135.429 288.743 134.412 286.794 133.007C286.716 132.95 286.616 133.079 286.691 133.141Z" fill="#312A3C"/>
<path d="M294.089 132.867C295.86 133.921 297.617 134.997 299.435 135.969C299.751 136.138 300.032 135.659 299.716 135.489C297.894 134.514 296.018 133.648 294.154 132.756C294.08 132.721 294.017 132.824 294.089 132.867Z" fill="#312A3C"/>
<path d="M299.755 131.545C300.685 132.251 301.558 132.925 302.59 133.482C302.939 133.67 303.182 133.131 302.804 132.974C301.748 132.533 300.834 131.956 299.863 131.36C299.743 131.286 299.649 131.464 299.755 131.545Z" fill="#312A3C"/>
<path d="M289.348 138.908C290.454 139.609 291.565 140.302 292.694 140.967C293.63 141.52 294.738 142.345 295.851 142.459C296.01 142.476 296.116 142.232 295.988 142.131C295.068 141.409 293.794 141.028 292.748 140.514C291.626 139.961 290.517 139.383 289.413 138.798C289.339 138.758 289.278 138.864 289.348 138.908Z" fill="#312A3C"/>
<path d="M293.615 141.105C291.913 141.674 288.897 142.968 289.765 145.308C289.852 145.543 290.175 145.449 290.137 145.205C289.822 143.177 292.151 142.027 293.715 141.339C293.848 141.281 293.753 141.059 293.615 141.105Z" fill="#312A3C"/>
<path d="M178.089 212.203H39.3708L50.4347 181.357H167.025L178.089 212.203Z" fill="#0A2533"/>
<path d="M66.2554 197.11L77.5524 195.998V191.695L66.2554 190.583C64.3208 190.393 62.6438 191.908 62.6438 193.846C62.6443 195.785 64.3208 197.301 66.2554 197.11Z" fill="#57B031"/>
<path d="M152.212 197.11L140.915 195.998V191.695L152.212 190.583C154.146 190.393 155.823 191.908 155.823 193.846C155.823 195.785 154.146 197.301 152.212 197.11Z" fill="#57B031"/>
<path d="M144.347 186.903H74.1196V200.791H144.347V186.903Z" fill="#57B031"/>
<path d="M75.3306 190.407C78.5283 186.188 83.9189 189.549 87.5327 191.12C90.4688 192.397 93.5672 193.283 96.7338 193.763C102.855 194.689 110.135 194.402 115.675 191.383C115.938 191.24 115.755 190.85 115.477 190.914C111.35 191.874 107.455 192.985 103.182 193.135C99.122 193.276 95.0673 192.8 91.1704 191.641C86.6043 190.283 78.9248 184.723 74.9602 190.192C74.7974 190.416 75.1673 190.622 75.3306 190.407Z" fill="#312A3C"/>
<path d="M99.7024 189.473C99.7815 190.94 101.952 191.251 103.097 191.312C105.174 191.422 107.074 190.655 108.555 189.221C108.805 188.978 108.602 188.596 108.286 188.574C105.858 188.401 103.083 188.124 100.72 188.828C100.5 188.893 100.563 189.182 100.771 189.206C103.239 189.477 105.792 189.143 108.286 189.332C108.196 189.116 108.107 188.901 108.017 188.685C107.025 189.637 105.796 190.323 104.443 190.609C103.334 190.843 100.192 191.055 100.002 189.473C99.9805 189.287 99.6919 189.277 99.7024 189.473Z" fill="#312A3C"/>
<path d="M113.38 188.681C118.487 188.697 122.314 192.27 126.913 193.919C130.761 195.3 135.719 195.876 139.525 194.089C139.754 193.981 139.644 193.593 139.395 193.611C137.049 193.779 134.767 194.232 132.402 194.071C129.604 193.881 127.036 193.076 124.498 191.926C120.903 190.297 117.464 188.228 113.38 188.425C113.216 188.433 113.213 188.681 113.38 188.681Z" fill="#312A3C"/>
<path d="M126.476 189.958C129.09 189.84 131.667 189.394 134.293 189.464C136.493 189.522 139.065 190.718 141.162 190.078C141.355 190.02 141.334 189.774 141.162 189.707C136.698 187.967 130.987 188.701 126.47 189.916C126.448 189.922 126.451 189.958 126.476 189.958Z" fill="#312A3C"/>
<path d="M89.9914 196.35C96.7485 201.582 105.422 199.345 113.098 197.949C118.46 196.975 123.707 196.843 129.101 197.631C133.523 198.276 137.973 199.326 142.446 198.598C142.855 198.532 142.753 197.876 142.349 197.885C133.539 198.069 125.107 195.322 116.262 196.547C107.655 197.738 98.1699 201.432 90.173 196.115C90.0335 196.022 89.8556 196.245 89.9914 196.35Z" fill="#312A3C"/>
<path d="M87.133 194.239C86.1383 191.86 78.9714 194.287 78.5978 196.433C78.0906 199.343 86.1996 197.891 86.8403 195.609C86.9432 195.243 86.3962 194.996 86.2133 195.346C85.6334 196.455 83.9289 196.852 82.808 197.111C82.2253 197.245 81.6171 197.348 81.0162 197.299C80.2808 197.452 79.9204 197.209 79.9355 196.57C79.6176 196.023 79.8152 195.659 80.5291 195.478C81.3436 194.935 82.2505 194.524 83.1949 194.267C84.0085 194.045 86.3766 193.414 86.9752 194.306C87.0269 194.38 87.1728 194.334 87.133 194.239Z" fill="#312A3C"/>
<path d="M79.4338 198.741C77.8739 199.779 77.1486 188.672 74.6867 187.619C75.5808 193.038 77.8108 199.701 76.4109 200.395C74.1324 201.525 71.5403 189.6 70.3933 190.24C68.6906 191.19 74.5655 199.935 72.8565 200.32C70.0645 200.949 67.1595 193.47 65.2218 190.669C63.8324 191.541 69.6483 197.34 67.7595 198.012C63.6778 199.465 55.583 179.536 54.082 174.836C54.082 174.836 65.7454 170.557 65.9983 170.936C69.1617 175.66 75.4116 179.685 77.8675 184.486C81.2678 191.136 80.295 198.168 79.4338 198.741Z" fill="#CCC4C4"/>
<path d="M56.7286 125.641C48.6741 141.127 44.586 146.578 46.949 158.723C48.9727 169.124 51.6271 181.296 54.3423 181.357C56.6157 181.408 72.8565 172.966 72.8565 172.966C72.8565 172.966 67.9667 163.069 64.8532 152.824C64.3848 151.282 66.4671 146.417 69.0766 141.674L56.7286 125.641Z" fill="#57B031"/>
<path d="M55.0101 137.374C54.8774 137.764 55.4006 138.228 55.5749 138.552C55.8456 139.055 56.1072 139.544 56.3327 140.069C56.5865 140.66 57.5757 140.239 57.3754 139.631C57.1426 138.925 56.7548 138.268 56.1914 137.777C56.0089 137.619 55.1889 136.85 55.0101 137.374Z" fill="#312A3C"/>
<path d="M59.7576 137.849C59.4338 138.705 58.9687 139.49 58.4981 140.272C58.1053 140.926 59.1329 141.523 59.5207 140.868C60.0563 139.965 60.3082 138.973 60.4313 137.939C60.4802 137.53 59.8838 137.516 59.7576 137.849Z" fill="#312A3C"/>
<path d="M58.6207 153.362C58.488 153.751 59.0112 154.216 59.1855 154.54C59.4562 155.043 59.7178 155.532 59.9433 156.057C60.1971 156.648 61.1863 156.226 60.986 155.619C60.7532 154.912 60.3654 154.256 59.802 153.765C59.6195 153.607 58.7995 152.838 58.6207 153.362Z" fill="#312A3C"/>
<path d="M63.3682 153.836C63.0444 154.693 62.5793 155.478 62.1087 156.26C61.7159 156.914 62.7435 157.511 63.1313 156.856C63.6669 155.953 63.9188 154.96 64.0419 153.927C64.0908 153.518 63.494 153.504 63.3682 153.836Z" fill="#312A3C"/>
<path d="M48.3431 151.122C48.2104 151.512 48.7336 151.976 48.9079 152.3C49.1786 152.803 49.4402 153.293 49.6657 153.817C49.9195 154.408 50.9087 153.987 50.7084 153.379C50.4756 152.673 50.0878 152.016 49.5244 151.526C49.3419 151.367 48.5219 150.598 48.3431 151.122Z" fill="#312A3C"/>
<path d="M53.0911 151.597C52.7673 152.453 52.3022 153.238 51.8316 154.02C51.4388 154.674 52.4664 155.271 52.8542 154.616C53.3898 153.713 53.6417 152.721 53.7648 151.687C53.8132 151.278 53.2169 151.264 53.0911 151.597Z" fill="#312A3C"/>
<path d="M52.9693 163.508C52.8367 163.897 53.3599 164.362 53.5341 164.686C53.8048 165.189 54.0664 165.678 54.2919 166.203C54.5457 166.794 55.5349 166.372 55.3346 165.765C55.1018 165.058 54.714 164.402 54.1506 163.911C53.9681 163.753 53.1481 162.984 52.9693 163.508Z" fill="#312A3C"/>
<path d="M57.7169 163.982C57.3931 164.839 56.9279 165.624 56.4574 166.406C56.0645 167.06 57.0921 167.656 57.48 167.002C58.0155 166.099 58.2675 165.106 58.3905 164.073C58.4394 163.664 57.8431 163.65 57.7169 163.982Z" fill="#312A3C"/>
<path d="M62.9439 168.728C62.8113 169.118 63.3345 169.582 63.5087 169.906C63.7795 170.409 64.041 170.898 64.2665 171.423C64.5203 172.014 65.5095 171.593 65.3092 170.985C65.0764 170.279 64.6886 169.622 64.1252 169.131C63.9427 168.973 63.1227 168.203 62.9439 168.728Z" fill="#312A3C"/>
<path d="M67.6915 169.202C67.3677 170.059 66.9021 170.844 66.432 171.626C66.0391 172.279 67.0667 172.876 67.4546 172.222C67.9901 171.319 68.2421 170.327 68.3651 169.293C68.414 168.884 67.8172 168.869 67.6915 169.202Z" fill="#312A3C"/>
<path d="M64.9171 152.824C64.8124 151.173 63.4349 149.53 62.265 148.456C61.1715 147.451 59.1885 145.644 57.6318 145.679C57.3985 145.685 57.1689 145.977 57.3354 146.194C57.7598 146.747 58.2976 146.932 58.8999 147.278C59.7785 147.783 60.6122 148.359 61.391 149.007C62.7754 150.158 63.6612 151.527 64.8073 152.869C64.843 152.911 64.9207 152.877 64.9171 152.824Z" fill="#312A3C"/>
<path d="M138.116 198.741C139.676 199.779 140.401 188.672 142.863 187.619C141.969 193.038 139.739 199.701 141.139 200.395C143.417 201.525 146.01 189.6 147.157 190.24C148.859 191.19 142.984 199.935 144.693 200.32C147.485 200.949 150.39 193.47 152.328 190.669C153.717 191.541 147.902 197.34 149.79 198.012C153.872 199.465 161.967 179.536 163.468 174.836C163.468 174.836 151.804 170.557 151.552 170.936C148.388 175.66 142.138 179.685 139.682 184.486C136.282 191.136 137.255 198.168 138.116 198.741Z" fill="#CCC4C4"/>
<path d="M160.822 125.641C168.876 141.127 172.964 146.578 170.601 158.723C168.577 169.124 165.923 181.296 163.208 181.357C160.935 181.408 144.694 172.966 144.694 172.966C144.694 172.966 149.584 163.069 152.697 152.824C153.165 151.282 151.083 146.417 148.474 141.674L160.822 125.641Z" fill="#57B031"/>
<path d="M152.622 141.462C152.49 141.851 153.013 142.316 153.187 142.64C153.458 143.143 153.719 143.632 153.945 144.157C154.199 144.748 155.188 144.327 154.987 143.719C154.755 143.012 154.367 142.356 153.803 141.865C153.621 141.706 152.801 140.937 152.622 141.462Z" fill="#312A3C"/>
<path d="M157.37 141.936C157.046 142.793 156.581 143.578 156.111 144.36C155.718 145.013 156.745 145.61 157.133 144.956C157.669 144.053 157.921 143.061 158.044 142.027C158.093 141.618 157.496 141.604 157.37 141.936Z" fill="#312A3C"/>
<path d="M163.313 146.523C163.181 146.913 163.704 147.377 163.878 147.701C164.149 148.204 164.41 148.693 164.636 149.218C164.89 149.809 165.879 149.388 165.679 148.78C165.446 148.074 165.058 147.417 164.495 146.926C164.312 146.768 163.492 145.999 163.313 146.523Z" fill="#312A3C"/>
<path d="M168.061 146.997C167.737 147.854 167.272 148.639 166.801 149.421C166.408 150.075 167.436 150.671 167.824 150.017C168.359 149.114 168.611 148.121 168.734 147.088C168.783 146.679 168.187 146.665 168.061 146.997Z" fill="#312A3C"/>
<path d="M154.402 153.462C154.269 153.851 154.792 154.316 154.966 154.64C155.237 155.143 155.499 155.632 155.724 156.157C155.978 156.748 156.967 156.327 156.767 155.719C156.534 155.012 156.146 154.356 155.583 153.865C155.4 153.706 154.58 152.937 154.402 153.462Z" fill="#312A3C"/>
<path d="M159.149 153.936C158.825 154.793 158.36 155.578 157.89 156.36C157.497 157.013 158.525 157.61 158.912 156.956C159.448 156.053 159.7 155.06 159.823 154.027C159.872 153.618 159.275 153.604 159.149 153.936Z" fill="#312A3C"/>
<path d="M161.762 163.619C161.629 164.008 162.152 164.472 162.326 164.796C162.597 165.299 162.859 165.789 163.084 166.313C163.338 166.905 164.327 166.483 164.127 165.875C163.894 165.169 163.506 164.512 162.943 164.022C162.76 163.863 161.94 163.094 161.762 163.619Z" fill="#312A3C"/>
<path d="M166.509 164.093C166.185 164.949 165.72 165.734 165.25 166.517C164.857 167.17 165.884 167.767 166.272 167.113C166.808 166.21 167.06 165.217 167.183 164.184C167.232 163.775 166.635 163.76 166.509 164.093Z" fill="#312A3C"/>
<path d="M151.077 167.318C150.945 167.708 151.468 168.172 151.642 168.496C151.913 168.999 152.174 169.488 152.4 170.013C152.654 170.605 153.643 170.183 153.443 169.575C153.21 168.869 152.822 168.212 152.259 167.721C152.076 167.563 151.256 166.793 151.077 167.318Z" fill="#312A3C"/>
<path d="M155.825 167.792C155.501 168.649 155.036 169.434 154.566 170.216C154.173 170.869 155.2 171.466 155.588 170.812C156.124 169.909 156.376 168.917 156.499 167.883C156.548 167.474 155.951 167.459 155.825 167.792Z" fill="#312A3C"/>
<path d="M151.849 154.637C152.422 152.809 153.221 151.051 154.344 149.491C155.496 147.89 156.999 146.846 158.397 145.498C158.794 145.115 158.29 144.522 157.825 144.76C154.4 146.512 152.139 150.915 151.478 154.534C151.433 154.776 151.774 154.877 151.849 154.637Z" fill="#312A3C"/>
<path d="M157.463 132.544C157.331 132.933 157.854 133.397 158.028 133.721C158.299 134.224 158.561 134.714 158.786 135.239C159.04 135.83 160.029 135.408 159.829 134.8C159.596 134.094 159.208 133.437 158.645 132.947C158.462 132.788 157.642 132.019 157.463 132.544Z" fill="#312A3C"/>
<path d="M162.211 133.018C161.888 133.874 161.423 134.66 160.952 135.442C160.559 136.095 161.587 136.692 161.975 136.038C162.51 135.135 162.762 134.142 162.885 133.109C162.934 132.7 162.337 132.685 162.211 133.018Z" fill="#312A3C"/>
<path d="M334.698 157.373V203.303C334.698 205.076 327.823 206.514 319.345 206.514C310.86 206.514 303.986 205.076 303.986 203.303V157.372L334.698 157.373Z" fill="white"/>
<path d="M307.688 167.59C307.42 171.248 307.333 174.901 307.295 178.569C307.26 181.882 306.906 185.494 307.659 188.742C307.718 188.997 308.15 189.016 308.196 188.742C308.752 185.45 308.261 181.893 308.184 178.569C308.1 174.908 308.071 171.249 307.945 167.59C307.939 167.424 307.7 167.426 307.688 167.59Z" fill="#312A3C"/>
<path d="M308.383 192.596C308.119 194.205 307.941 195.924 308.059 197.552C308.095 198.047 308.795 198.048 308.831 197.552C308.949 195.924 308.771 194.204 308.507 192.596C308.497 192.535 308.393 192.535 308.383 192.596Z" fill="#312A3C"/>
<path d="M331.139 168.513C330.615 169.603 330.024 170.653 329.34 171.651C328.663 172.637 327.8 173.547 327.24 174.602C327.059 174.943 327.466 175.206 327.745 174.991C329.626 173.541 330.678 170.811 331.452 168.645C331.517 168.464 331.223 168.338 331.139 168.513Z" fill="#312A3C"/>
<path d="M331.228 173.804C330.794 174.747 330.278 175.656 329.744 176.546C329.255 177.36 328.525 178.063 328.169 178.936C328.062 179.197 328.42 179.441 328.641 179.298C329.447 178.777 329.965 177.764 330.43 176.946C330.967 176 331.306 175.002 331.58 173.952C331.633 173.75 331.322 173.599 331.228 173.804Z" fill="#312A3C"/>
<path d="M331.727 178.742C331.419 179.579 331.044 180.383 330.579 181.145C330.16 181.832 329.573 182.441 329.241 183.172C329.14 183.394 329.371 183.734 329.622 183.552C330.999 182.554 331.725 180.435 332.182 178.867C332.268 178.572 331.83 178.462 331.727 178.742Z" fill="#312A3C"/>
<path d="M331.026 185.643C330.797 186.363 330.468 187.017 330.05 187.645C329.634 188.272 329.075 188.738 328.598 189.31C328.376 189.577 328.654 190.008 328.988 189.814C330.363 189.012 331.129 187.241 331.397 185.746C331.441 185.504 331.101 185.404 331.026 185.643Z" fill="#312A3C"/>
<path d="M331.126 192.223C330.688 192.818 330.252 193.406 329.858 194.032C329.514 194.58 329.025 195.145 328.882 195.781C328.815 196.078 329.158 196.271 329.384 196.072C329.873 195.64 330.133 194.939 330.447 194.374C330.806 193.729 331.112 193.065 331.422 192.395C331.516 192.195 331.257 192.046 331.126 192.223Z" fill="#312A3C"/>
<path d="M331.042 196.184C330.891 197.025 330.607 197.824 330.146 198.548C329.718 199.219 329.094 199.698 328.706 200.385C328.613 200.551 328.771 200.806 328.972 200.731C330.592 200.126 331.292 197.8 331.421 196.235C331.438 196.021 331.079 195.97 331.042 196.184Z" fill="#312A3C"/>
<path d="M335.523 157.263V162.046C331.38 165.922 307.304 165.922 303.16 162.046V157.263H335.523Z" fill="#161616"/>
<path d="M335.524 157.262C335.524 159.13 328.279 160.645 319.343 160.645C310.406 160.645 303.161 159.13 303.161 157.262C303.161 155.394 310.406 153.879 319.343 153.879C328.279 153.879 335.524 155.393 335.524 157.262Z" fill="#57B031"/>
<path d="M322.646 165.887V211.818C322.646 213.591 315.771 215.029 307.293 215.029C298.808 215.029 291.934 213.591 291.934 211.818V165.887H322.646Z" fill="#FFFCF8"/>
<path d="M295.636 176.104C295.368 179.763 295.281 183.415 295.243 187.083C295.208 190.397 294.854 194.009 295.607 197.256C295.666 197.512 296.098 197.53 296.144 197.256C296.7 193.965 296.209 190.408 296.132 187.083C296.048 183.423 296.019 179.764 295.893 176.104C295.887 175.938 295.648 175.941 295.636 176.104Z" fill="#312A3C"/>
<path d="M296.33 201.111C296.067 202.72 295.889 204.438 296.007 206.067C296.042 206.562 296.742 206.562 296.779 206.067C296.897 204.439 296.718 202.718 296.455 201.111C296.445 201.05 296.34 201.05 296.33 201.111Z" fill="#312A3C"/>
<path d="M319.086 177.028C318.563 178.118 317.972 179.168 317.288 180.166C316.611 181.152 315.748 182.062 315.188 183.117C315.007 183.458 315.414 183.721 315.693 183.506C317.574 182.056 318.626 179.326 319.4 177.16C319.465 176.978 319.17 176.853 319.086 177.028Z" fill="#312A3C"/>
<path d="M319.176 182.319C318.742 183.262 318.226 184.171 317.692 185.061C317.203 185.874 316.473 186.578 316.117 187.45C316.01 187.712 316.368 187.955 316.589 187.812C317.395 187.291 317.913 186.279 318.378 185.461C318.914 184.515 319.254 183.516 319.528 182.467C319.581 182.264 319.27 182.114 319.176 182.319Z" fill="#312A3C"/>
<path d="M319.675 187.256C319.367 188.094 318.992 188.897 318.527 189.659C318.108 190.346 317.521 190.955 317.189 191.686C317.088 191.909 317.319 192.249 317.57 192.067C318.947 191.068 319.673 188.95 320.13 187.381C320.216 187.087 319.778 186.976 319.675 187.256Z" fill="#312A3C"/>
<path d="M318.974 194.158C318.745 194.877 318.416 195.531 317.998 196.16C317.582 196.787 317.023 197.252 316.546 197.824C316.324 198.092 316.602 198.523 316.936 198.328C318.311 197.527 319.076 195.755 319.345 194.26C319.389 194.019 319.049 193.918 318.974 194.158Z" fill="#312A3C"/>
<path d="M319.074 200.738C318.636 201.333 318.2 201.921 317.806 202.547C317.462 203.095 316.973 203.66 316.83 204.296C316.763 204.593 317.106 204.786 317.332 204.587C317.821 204.156 318.081 203.454 318.395 202.89C318.754 202.245 319.06 201.581 319.37 200.911C319.464 200.709 319.205 200.561 319.074 200.738Z" fill="#312A3C"/>
<path d="M318.989 204.699C318.838 205.54 318.555 206.339 318.093 207.063C317.666 207.734 317.041 208.213 316.653 208.9C316.56 209.066 316.718 209.321 316.92 209.246C318.54 208.641 319.24 206.315 319.368 204.75C319.386 204.535 319.027 204.484 318.989 204.699Z" fill="#312A3C"/>
<path d="M323.471 165.777V170.561C319.328 174.436 295.252 174.436 291.108 170.561V165.777H323.471Z" fill="#161616"/>
<path d="M307.291 169.159C316.227 169.159 323.472 167.645 323.472 165.776C323.472 163.908 316.227 162.393 307.291 162.393C298.354 162.393 291.109 163.908 291.109 165.776C291.109 167.645 298.354 169.159 307.291 169.159Z" fill="#57B031"/>
<path d="M183.705 162.685C183.705 165.179 185.641 193.709 217.157 193.709C248.674 193.709 250.61 165.179 250.61 162.685C250.61 160.191 235.633 158.17 217.157 158.17C198.683 158.17 183.705 160.191 183.705 162.685Z" fill="#57B031"/>
<path d="M217.157 166.887C234.351 166.887 248.289 165.006 248.289 162.685C248.289 160.364 234.351 158.483 217.157 158.483C199.964 158.483 186.026 160.364 186.026 162.685C186.026 165.006 199.964 166.887 217.157 166.887Z" fill="#0A2533"/>
<path d="M187.547 168.272C189.244 175.14 193.029 182.244 199.011 186.312C199.237 186.466 199.48 186.129 199.297 185.943C194.151 180.693 189.919 175.37 187.795 168.204C187.748 168.045 187.507 168.111 187.547 168.272Z" fill="#0A2533"/>
<path d="M201.285 187.618C202.32 188.415 203.753 189.357 205.129 189.202C205.32 189.181 205.446 188.911 205.237 188.804C204.695 188.526 204.075 188.383 203.492 188.21C202.777 187.998 202.104 187.692 201.458 187.322C201.26 187.209 201.116 187.487 201.285 187.618Z" fill="#0A2533"/>
<path d="M246.467 166.406C245.727 167.208 244.927 167.958 244.12 168.692C243.377 169.368 242.384 169.887 241.821 170.724C241.652 170.974 241.931 171.307 242.208 171.226C243.204 170.936 243.992 169.986 244.688 169.258C245.469 168.44 246.092 167.532 246.669 166.561C246.742 166.438 246.567 166.297 246.467 166.406Z" fill="#0A2533"/>
<path d="M245.856 169.775C245.336 170.68 244.723 171.515 243.989 172.258C243.422 172.832 242.612 173.287 242.328 174.067C242.287 174.178 242.394 174.321 242.514 174.31C243.44 174.228 244.067 173.354 244.605 172.677C245.261 171.851 245.795 170.952 246.226 169.991C246.337 169.746 245.996 169.532 245.856 169.775Z" fill="#0A2533"/>
<path d="M244.919 173.653C244.532 174.373 244.087 175.054 243.558 175.679C243.067 176.258 242.447 176.711 241.961 177.283C241.75 177.531 242.015 177.937 242.324 177.753C243.66 176.96 244.674 175.251 245.326 173.89C245.455 173.62 245.064 173.383 244.919 173.653Z" fill="#0A2533"/>
<path d="M243.308 178.474C242.765 178.997 242.222 179.521 241.679 180.045C241.184 180.522 240.602 180.966 240.269 181.575C240.167 181.763 240.373 181.973 240.562 181.867C241.171 181.528 241.608 180.947 242.083 180.447C242.602 179.9 243.122 179.353 243.642 178.806C243.851 178.586 243.527 178.263 243.308 178.474Z" fill="#0A2533"/>
<path d="M271.725 144.381H266.708V150.846H271.725V144.381Z" fill="#161616"/>
<path d="M276.717 162.2C274.055 159.937 272.602 156.562 272.602 153.073V146.676H271.129V153.073C271.129 157.081 272.818 160.815 275.761 163.318C278.016 165.235 279.308 168.026 279.308 170.976V212.981C278.479 213.566 274.928 214.543 269.217 214.543C263.507 214.543 259.956 213.566 259.126 212.981V170.976C259.126 168.026 260.419 165.234 262.673 163.318C265.618 160.815 267.306 157.081 267.306 153.073V146.676H265.833V153.073C265.833 156.562 264.38 159.936 261.718 162.2C259.231 164.315 257.653 167.462 257.653 170.976V213.288C257.653 214.792 262.831 216.011 269.217 216.011C275.604 216.011 280.782 214.792 280.782 213.288V170.976C280.782 167.462 279.204 164.315 276.717 162.2Z" fill="#FFFCF8"/>
<path opacity="0.3" d="M279.308 170.975V212.981C278.479 213.565 274.93 214.542 269.218 214.542C263.507 214.542 259.957 213.565 259.125 212.981V170.975C259.125 168.027 260.417 165.236 262.675 163.319C265.617 160.815 267.307 157.081 267.307 153.072V146.676H271.13V153.072C271.13 157.081 272.816 160.815 275.762 163.319C278.016 165.236 279.308 168.027 279.308 170.975Z" fill="#FFFCF8"/>
<path d="M279.308 184.806V212.981C278.479 213.565 274.93 214.542 269.218 214.542C263.507 214.542 259.957 213.565 259.125 212.981V184.806H279.308Z" fill="#0A2533"/>
<path d="M272.696 147.613H265.739C265.22 147.613 264.799 147.194 264.799 146.676C264.799 146.158 265.219 145.738 265.739 145.738H272.696C273.215 145.738 273.637 146.158 273.637 146.676C273.637 147.193 273.215 147.613 272.696 147.613Z" fill="#FFFCF8"/>
<path d="M261.241 168.039C260.911 172.479 260.666 176.915 260.614 181.367C260.566 185.445 260.176 189.873 260.979 193.882C261.045 194.217 261.491 194.093 261.526 193.809C262.042 189.624 261.46 185.139 261.451 180.922C261.442 176.628 261.447 172.333 261.542 168.039C261.545 167.845 261.255 167.85 261.241 168.039Z" fill="#312A3C"/>
<path d="M260.845 197.997C260.674 201.127 260.224 204.603 260.865 207.692C260.929 208.001 261.338 207.887 261.371 207.624C261.763 204.495 261.252 201.153 261.23 197.997C261.229 197.748 260.858 197.751 260.845 197.997Z" fill="#312A3C"/>
<path d="M278.475 169.681C278.033 170.38 277.601 171.071 277.18 171.782C276.799 172.427 276.262 173.023 276.028 173.738C275.918 174.072 276.337 174.232 276.565 174.05C277.18 173.558 277.532 172.712 277.871 172.016C278.237 171.267 278.441 170.551 278.593 169.73C278.605 169.66 278.515 169.617 278.475 169.681Z" fill="#312A3C"/>
<path d="M278.409 172.884C277.958 173.653 277.507 174.423 277.057 175.192C276.711 175.781 276.078 176.47 276.163 177.177C276.186 177.36 276.345 177.461 276.518 177.38C277.165 177.076 277.41 176.183 277.725 175.581C278.138 174.789 278.551 173.998 278.965 173.206C279.155 172.843 278.619 172.525 278.409 172.884Z" fill="#312A3C"/>
<path d="M278.079 178.233C277.356 179.719 276.301 181.005 275.54 182.46C275.401 182.727 275.722 182.954 275.944 182.771C277.273 181.677 277.914 179.957 278.314 178.332C278.348 178.196 278.145 178.097 278.079 178.233Z" fill="#312A3C"/>
<path d="M277.86 193.95C277.323 194.876 276.786 195.801 276.248 196.726C275.902 197.324 275.222 197.977 275.563 198.672C275.604 198.756 275.7 198.772 275.781 198.761C276.521 198.659 276.757 197.59 277.052 197C277.507 196.091 277.961 195.183 278.415 194.274C278.599 193.907 278.07 193.59 277.86 193.95Z" fill="#312A3C"/>
<path d="M277.588 198.097C277.122 198.765 276.643 199.423 276.224 200.122C275.834 200.773 275.507 201.203 275.519 201.968C275.522 202.095 275.664 202.184 275.777 202.115C276.432 201.719 276.616 201.235 276.963 200.552C277.334 199.823 277.639 199.065 277.959 198.312C278.065 198.062 277.75 197.866 277.588 198.097Z" fill="#312A3C"/>
<path d="M277.477 202.288C277.175 203.197 276.777 204.06 276.257 204.866C275.873 205.459 275.224 205.979 275.137 206.697C275.12 206.837 275.287 206.938 275.408 206.903C276.17 206.685 276.57 205.729 276.907 205.075C277.346 204.225 277.666 203.33 277.89 202.402C277.956 202.133 277.564 202.028 277.477 202.288Z" fill="#312A3C"/>
<path d="M91.2015 202.171C90.4821 201.697 90.4748 200.587 90.6614 199.748C91.1914 197.364 93.8567 196.205 96.1983 195.489C101.695 193.809 107.456 192.551 113.167 193.213C118.877 193.875 124.572 196.727 127.471 201.677C127.651 201.984 127.825 202.316 127.821 202.672C127.815 203.151 127.49 203.566 127.135 203.891C125.428 205.452 122.927 205.705 120.613 205.836C116.585 206.064 112.548 206.16 108.513 206.124C102.576 206.071 94.9063 204.611 91.2015 202.171Z" fill="#FFFCF8"/>
<path d="M97.6064 200.598C97.6682 200.614 97.7285 200.63 97.793 200.629C97.8923 200.627 97.9924 200.588 98.0629 200.517C98.1292 200.451 98.179 200.343 98.1749 200.248C98.1653 200.038 98.0071 199.872 97.793 199.867C97.7299 199.866 97.6673 199.882 97.6064 199.898C97.4573 199.936 97.332 200.092 97.3389 200.248C97.3458 200.406 97.4464 200.557 97.6064 200.598Z" fill="#312A3C"/>
<path d="M103.074 198.349C103.245 198.349 103.424 198.275 103.544 198.155C103.609 198.094 103.655 198.023 103.681 197.941C103.723 197.862 103.742 197.777 103.738 197.686C103.731 197.514 103.674 197.336 103.544 197.217C103.414 197.098 103.254 197.023 103.074 197.023C102.903 197.023 102.724 197.097 102.604 197.217C102.539 197.278 102.493 197.349 102.467 197.431C102.425 197.51 102.406 197.595 102.409 197.686C102.417 197.858 102.473 198.036 102.604 198.155C102.735 198.274 102.895 198.349 103.074 198.349Z" fill="#312A3C"/>
<path d="M109.596 200.384C109.653 200.347 109.709 200.31 109.765 200.273C109.958 200.146 109.958 199.883 109.765 199.757C109.709 199.72 109.653 199.683 109.596 199.646C109.47 199.563 109.29 199.572 109.164 199.646C109.033 199.722 108.951 199.864 108.951 200.015C108.951 200.166 109.033 200.308 109.164 200.384C109.29 200.458 109.47 200.467 109.596 200.384Z" fill="#312A3C"/>
<path d="M113.895 195.352C113.963 195.467 114.031 195.583 114.099 195.699C114.18 195.837 114.388 195.837 114.469 195.699C114.536 195.583 114.605 195.467 114.672 195.352C114.845 195.057 114.625 194.676 114.284 194.676C113.943 194.676 113.723 195.057 113.895 195.352Z" fill="#312A3C"/>
<path d="M119.273 198.461C119.348 198.447 119.422 198.434 119.496 198.42C119.61 198.398 119.705 198.266 119.7 198.152C119.695 198.036 119.618 197.906 119.496 197.884C119.422 197.87 119.348 197.856 119.273 197.843C119.162 197.822 119.042 197.837 118.961 197.925C118.903 197.988 118.866 198.065 118.866 198.152C118.866 198.234 118.902 198.321 118.961 198.378C119.047 198.465 119.158 198.482 119.273 198.461Z" fill="#312A3C"/>
<path d="M119.118 202.491C119.135 202.534 119.152 202.578 119.169 202.621C119.405 203.215 120.38 202.956 120.141 202.354C120.123 202.311 120.106 202.267 120.089 202.224C119.921 201.8 119.39 201.799 119.221 202.224C119.204 202.267 119.187 202.311 119.169 202.354C118.93 202.955 119.904 203.216 120.141 202.621C120.158 202.578 120.175 202.534 120.192 202.491C120.546 201.603 118.762 201.596 119.118 202.491Z" fill="#312A3C"/>
<path d="M112.182 201.732C112.596 201.732 112.597 201.091 112.182 201.091C111.768 201.091 111.768 201.732 112.182 201.732Z" fill="#312A3C"/>
<path d="M106.344 197.161C106.868 197.161 106.869 196.349 106.344 196.349C105.82 196.349 105.819 197.161 106.344 197.161Z" fill="#312A3C"/>
<path d="M98.1704 197.173C98.0986 197.18 98.0268 197.187 97.955 197.193C97.8868 197.191 97.8233 197.205 97.7647 197.236C97.7035 197.256 97.6504 197.29 97.6056 197.338C97.5201 197.423 97.4551 197.563 97.4611 197.686C97.4666 197.814 97.5086 197.945 97.6056 198.034C97.639 198.06 97.6724 198.086 97.7057 198.111C97.783 198.156 97.8658 198.178 97.955 198.179C98.0268 198.186 98.0986 198.192 98.1704 198.199C98.2943 198.21 98.4494 198.133 98.5344 198.049C98.6236 197.96 98.6908 197.814 98.6849 197.686C98.679 197.553 98.635 197.416 98.5344 197.323C98.4388 197.237 98.3044 197.161 98.1704 197.173Z" fill="#312A3C"/>
<path d="M101.981 201.52C102.002 201.592 102.022 201.664 102.043 201.736C102.083 201.875 102.224 201.993 102.374 201.987C102.526 201.98 102.662 201.885 102.705 201.736C102.725 201.664 102.746 201.592 102.767 201.52C102.84 201.266 102.636 201.006 102.374 201.006C102.113 201.006 101.908 201.266 101.981 201.52Z" fill="#312A3C"/>
<path d="M93.7332 200.633C94.2299 200.633 94.2308 199.863 93.7332 199.863C93.2365 199.863 93.2356 200.633 93.7332 200.633Z" fill="#312A3C"/>
<path d="M26.2198 142.769H21.2139V147.989H26.2198V142.769Z" fill="#161616"/>
<path opacity="0.3" d="M35.6201 192.622C32.9081 196.334 28.9028 198.217 23.7166 198.217C18.5305 198.217 14.5252 196.334 11.8132 192.622C8.14078 187.596 7.85541 180.623 8.83044 176.833C8.88395 176.623 8.94066 176.421 9.00285 176.231C9.79358 173.779 13.5346 169.471 16.5438 166.008C20.2135 161.783 21.9797 159.687 22.0245 158.249L22.0218 145.92H25.4147L25.4088 158.249C25.4531 159.687 27.2198 161.783 30.889 166.008C33.8983 169.471 37.6392 173.779 38.4304 176.231C38.4931 176.421 38.5493 176.622 38.6028 176.833C39.5779 180.623 39.2925 187.596 35.6201 192.622Z" fill="#FFFCF8"/>
<path d="M35.6201 192.622C32.9081 196.334 28.9028 198.217 23.7166 198.217C18.5305 198.217 14.5252 196.334 11.8132 192.622C8.14078 187.596 7.85541 180.623 8.83044 176.833H38.6028C39.5779 180.623 39.2925 187.596 35.6201 192.622Z" fill="#57B031"/>
<path d="M16.0129 198.814C16.0129 199.703 19.4621 200.424 23.7167 200.424C27.9713 200.424 31.4205 199.703 31.4205 198.814C31.4205 197.924 16.0129 197.924 16.0129 198.814Z" fill="#FFFCF8"/>
<path d="M26.5257 145.491H20.9074C20.488 145.491 20.1482 145.152 20.1482 144.734C20.1482 144.316 20.488 143.977 20.9074 143.977H26.5257C26.9451 143.977 27.2849 144.316 27.2849 144.734C27.2849 145.152 26.9451 145.491 26.5257 145.491Z" fill="#FFFCF8"/>
<path d="M39.5633 175.866C37.9604 170.901 26.6711 160.564 26.5961 158.21L26.603 144.734H20.8301L20.8369 158.21C20.7624 160.564 9.4731 170.902 7.87014 175.866C5.69232 182.612 7.87014 199.402 23.7167 199.402C39.5633 199.402 41.7412 182.612 39.5633 175.866ZM35.3015 192.071C32.6613 195.684 28.7639 197.516 23.7163 197.516C18.6687 197.516 14.7718 195.684 12.1311 192.071C8.35858 186.909 8.26071 179.635 9.39581 176.118C10.1655 173.734 13.8082 169.54 16.7356 166.17C20.3069 162.058 22.026 160.019 22.0703 158.618L22.0658 145.92H25.3677L25.3622 158.618C25.4066 160.02 27.1253 162.058 30.6975 166.17C33.6244 169.54 37.2675 173.735 38.0372 176.118C39.1723 179.635 39.074 186.909 35.3015 192.071Z" fill="#FFFCF8"/>
<path d="M27.9979 161.454L26.5714 160.478C31.6904 153.04 31.0364 151.166 30.714 150.769C30.1203 150.036 27.8785 150.504 26.5495 151.05L25.8882 149.457C26.3464 149.268 30.4153 147.664 32.0572 149.683C33.5508 151.519 32.2607 155.26 27.9979 161.454Z" fill="#FFFCF8"/>
<path d="M19.5934 165.163C16.1593 169.179 12.6333 174.117 11.4758 179.359C11.3861 179.765 11.9743 180.063 12.181 179.655C14.668 174.757 16.618 170.018 20.1089 165.676C20.3974 165.318 19.9017 164.802 19.5934 165.163Z" fill="#252527"/>
<path d="M11.4753 182.804C11.7634 185.133 12.6177 188.103 14.3116 189.826C14.6944 190.216 15.2126 189.724 15.0187 189.282C14.56 188.238 13.8269 187.312 13.327 186.276C12.7787 185.141 12.3181 183.936 11.8965 182.747C11.8215 182.537 11.4437 182.55 11.4753 182.804Z" fill="#252527"/>
<path d="M31.7946 170.429C31.7886 171.32 31.6606 172.269 31.4333 173.133C31.2169 173.954 30.7313 174.634 30.4738 175.428C30.3448 175.824 30.8735 176.095 31.1547 175.823C32.5053 174.512 32.5752 172.067 32.0475 170.395C32.0045 170.259 31.7955 170.282 31.7946 170.429Z" fill="#252527"/>
<path d="M33.8819 174.169C33.9368 175.109 33.8074 176.023 33.4296 176.891C33.1534 177.525 32.5113 178.11 32.509 178.813C32.5086 178.989 32.6732 179.093 32.8347 179.06C33.6652 178.893 34.0406 177.746 34.2661 177.026C34.567 176.066 34.6096 175.081 34.4715 174.089C34.4253 173.756 33.8627 173.834 33.8819 174.169Z" fill="#252527"/>
<path d="M35.9619 177.408C35.6006 178.41 35.189 179.389 34.7043 180.337C34.311 181.106 33.8157 181.817 33.5582 182.645C33.4704 182.928 33.8568 183.154 34.0599 182.936C35.3336 181.571 35.9002 179.283 36.3754 177.521C36.4481 177.252 36.0543 177.151 35.9619 177.408Z" fill="#252527"/>
<path d="M35.8667 182.265C35.6532 183.164 35.3156 184.015 34.8158 184.793C34.4184 185.413 33.6647 185.944 33.5156 186.677C33.4849 186.827 33.6039 186.941 33.7529 186.913C34.5537 186.766 35.0394 185.786 35.3893 185.128C35.8471 184.267 36.1347 183.341 36.2802 182.379C36.3204 182.114 35.9321 181.991 35.8667 182.265Z" fill="#252527"/>
<path d="M196.374 204.549C196.944 202.748 202.218 200.209 207.233 201.787C212.247 203.366 213.732 206.6 212.75 209.703C211.767 212.807 208.689 214.604 203.674 213.026C198.66 211.447 195.804 206.349 196.374 204.549Z" fill="#FFFCF8"/>
<path d="M200.041 204.215C201.428 203.844 202.834 203.767 204.257 203.949C205.265 204.079 206.212 204.625 207.219 204.456C207.374 204.43 207.464 204.205 207.373 204.079C206.659 203.095 205.224 203.042 204.079 203.002C202.622 202.952 201.244 203.355 199.942 203.98C199.808 204.045 199.903 204.252 200.041 204.215Z" fill="#312A3C"/>
<path d="M208.643 205.545C209.053 205.856 209.474 206.146 209.856 206.493C210.184 206.789 210.512 207.262 210.94 207.389C211.171 207.457 211.485 207.261 211.455 206.997C211.393 206.44 210.82 205.996 210.351 205.731C209.843 205.444 209.303 205.256 208.719 205.265C208.558 205.268 208.531 205.459 208.643 205.545Z" fill="#312A3C"/>
<path d="M231.905 202.256C232.578 204.021 230.021 209.275 225.106 211.138C220.19 213.001 217.014 211.383 215.854 208.341C214.694 205.299 215.99 201.985 220.905 200.122C225.821 198.259 231.233 200.492 231.905 202.256Z" fill="#FFFCF8"/>
<path d="M230.244 202.118C227.894 200.812 223.39 200.497 221.326 202.521C221.144 202.699 221.337 202.948 221.556 202.914C223.019 202.682 224.262 201.967 225.782 201.859C227.268 201.754 228.687 202.069 230.129 202.392C230.29 202.428 230.399 202.204 230.244 202.118Z" fill="#312A3C"/>
<path d="M220.009 203.631C219.453 203.908 218.929 204.233 218.44 204.616C218.03 204.937 217.468 205.322 217.299 205.828C217.22 206.062 217.506 206.26 217.708 206.141C218.139 205.888 218.422 205.355 218.779 205C219.199 204.581 219.664 204.215 220.16 203.889C220.323 203.784 220.182 203.545 220.009 203.631Z" fill="#312A3C"/>
</g>
<defs>
<clipPath id="clip0_885_4961">
<rect width="343" height="228" fill="white"/>
</clipPath>
</defs>
</svg>
