<svg width="24" height="24" viewBox="0 0 24 24" fill="none" xmlns="http://www.w3.org/2000/svg">
<path d="M9.99997 3.01801C9.90148 3.01801 9.80395 2.99861 9.71296 2.96091C9.62196 2.92322 9.53928 2.86798 9.46964 2.79834C9.39999 2.72869 9.34475 2.64601 9.30706 2.55502C9.26937 2.46402 9.24997 2.3665 9.24997 2.26801C9.24997 2.16951 9.26937 2.07199 9.30706 1.98099C9.34475 1.89 9.39999 1.80732 9.46964 1.73768C9.53928 1.66803 9.62196 1.61279 9.71296 1.5751C9.80395 1.5374 9.90148 1.51801 9.99997 1.51801H13.536C13.7349 1.51801 13.9256 1.59702 14.0663 1.73768C14.207 1.87833 14.286 2.06909 14.286 2.26801C14.286 2.46692 14.207 2.65768 14.0663 2.79834C13.9256 2.93899 13.7349 3.01801 13.536 3.01801H9.99997ZM6.52997 3.47001C6.67042 3.61063 6.74931 3.80125 6.74931 4.00001C6.74931 4.19876 6.67042 4.38938 6.52997 4.53001L4.02997 7.03001C3.88779 7.16249 3.69975 7.23461 3.50545 7.23118C3.31114 7.22775 3.12576 7.14904 2.98835 7.01163C2.85093 6.87421 2.77222 6.68883 2.76879 6.49453C2.76537 6.30023 2.83749 6.11218 2.96997 5.97001L5.46997 3.47001C5.61059 3.32955 5.80122 3.25067 5.99997 3.25067C6.19872 3.25067 6.38934 3.32955 6.52997 3.47001ZM12 5.75001C10.5661 5.75001 9.16434 6.17521 7.97208 6.97185C6.77983 7.76849 5.85058 8.90079 5.30184 10.2256C4.75311 11.5503 4.60953 13.008 4.88928 14.4144C5.16902 15.8208 5.85951 17.1126 6.87344 18.1265C7.88738 19.1405 9.1792 19.831 10.5856 20.1107C11.9919 20.3904 13.4497 20.2469 14.7744 19.6981C16.0992 19.1494 17.2315 18.2201 18.0281 17.0279C18.8248 15.8356 19.25 14.4339 19.25 13C19.25 12.8011 19.329 12.6103 19.4696 12.4697C19.6103 12.329 19.8011 12.25 20 12.25C20.1989 12.25 20.3896 12.329 20.5303 12.4697C20.671 12.6103 20.75 12.8011 20.75 13C20.75 14.7306 20.2368 16.4223 19.2753 17.8612C18.3139 19.3002 16.9473 20.4217 15.3484 21.084C13.7496 21.7462 11.9903 21.9195 10.2929 21.5819C8.59559 21.2443 7.03649 20.4109 5.81278 19.1872C4.58907 17.9635 3.75572 16.4044 3.4181 14.707C3.08048 13.0097 3.25376 11.2504 3.91602 9.65153C4.57829 8.05267 5.6998 6.68611 7.13873 5.72465C8.57766 4.76318 10.2694 4.25001 12 4.25001C12.1989 4.25001 12.3896 4.32902 12.5303 4.46968C12.671 4.61033 12.75 4.80109 12.75 5.00001C12.75 5.19892 12.671 5.38968 12.5303 5.53034C12.3896 5.67099 12.1989 5.75001 12 5.75001Z" fill="white"/>
<path d="M17.188 8.36401C17.2995 8.21968 17.3545 8.03969 17.3429 7.85772C17.3312 7.67575 17.2537 7.50425 17.1247 7.37531C16.9958 7.24637 16.8243 7.16882 16.6423 7.15717C16.4604 7.14552 16.2804 7.20057 16.136 7.31201L12.966 9.77701L10.894 11.257C10.6953 11.3993 10.5299 11.5832 10.4094 11.7958C10.2889 12.0085 10.2161 12.2448 10.1961 12.4885C10.1761 12.7321 10.2094 12.9771 10.2936 13.2066C10.3778 13.436 10.511 13.6444 10.6839 13.8172C10.8568 13.99 11.0652 14.1231 11.2947 14.2073C11.5242 14.2914 11.7693 14.3246 12.0129 14.3045C12.2565 14.2844 12.4928 14.2115 12.7054 14.0909C12.918 13.9703 13.1018 13.8048 13.244 13.606L14.723 11.534L17.188 8.36401Z" fill="white"/>
</svg>
