<svg width="21" height="21" viewBox="0 0 21 21" fill="none" xmlns="http://www.w3.org/2000/svg">
<path d="M15.7142 17.5328C14.3212 18.9129 12.4716 19.6704 10.5 19.6704C8.52849 19.6704 6.67887 18.9129 5.28582 17.5328C3.89796 16.1553 3.13269 14.329 3.13269 12.386C3.13269 11.2576 3.38692 10.1758 3.88758 9.16931C4.37528 8.18613 5.10164 7.30672 5.98364 6.62965C6.54615 6.19953 7.05635 5.705 7.50381 5.15618C8.15234 4.36497 8.66079 3.48297 9.01359 2.53611C9.15831 2.14553 9.26347 1.74141 9.32748 1.32983C9.95267 1.90573 10.4767 2.60096 10.9151 3.41552C11.7815 5.03945 12.181 6.48438 12.1032 7.714C12.0846 8.0036 12.1319 8.29364 12.2415 8.56233C12.3512 8.83102 12.5203 9.07137 12.7362 9.26529C12.9233 9.43429 13.1421 9.56443 13.3799 9.64815C13.6177 9.73187 13.8697 9.76751 14.1214 9.75299C14.6325 9.72705 15.102 9.50136 15.4444 9.12002C15.7895 8.73349 16.0878 8.33919 16.3368 7.93709C16.7 8.40144 17.0035 8.9073 17.2448 9.45207C17.6572 10.3808 17.8674 11.3691 17.8674 12.386C17.8674 14.329 17.1021 16.1579 15.7142 17.5328Z" stroke="#0A2533" stroke-width="1.5" stroke-linejoin="round"/>
<path d="M11.9398 16.0205C11.3807 16.5744 10.6384 16.8784 9.8471 16.8784C9.05583 16.8784 8.3135 16.5744 7.7544 16.0205C7.19739 15.4677 6.89026 14.7347 6.89026 13.9549C6.89026 13.502 6.99229 13.0679 7.19323 12.6639C7.38896 12.2693 7.68048 11.9164 8.03447 11.6446C8.26023 11.472 8.46499 11.2735 8.64458 11.0533C8.90486 10.7357 9.10893 10.3817 9.25052 10.0017C9.3086 9.84495 9.35081 9.68276 9.3765 9.51758C9.62741 9.74871 9.83772 10.0277 10.0137 10.3547C10.3614 11.0064 10.5218 11.5863 10.4905 12.0798C10.4831 12.1961 10.502 12.3125 10.546 12.4203C10.59 12.5281 10.6579 12.6246 10.7446 12.7024C10.8196 12.7702 10.9075 12.8225 11.0029 12.8561C11.0983 12.8897 11.1995 12.904 11.3005 12.8982C11.5056 12.8877 11.6941 12.7972 11.8315 12.6441C11.97 12.489 12.0897 12.3307 12.1897 12.1694C12.3354 12.3557 12.4572 12.5587 12.5541 12.7774C12.7196 13.1501 12.8039 13.5468 12.8039 13.9549C12.8039 14.7347 12.4968 15.4687 11.9398 16.0205Z" stroke="#0A2533" stroke-width="1.5" stroke-linejoin="round"/>
</svg>
