<svg width="22" height="22" viewBox="0 0 22 22" fill="none" xmlns="http://www.w3.org/2000/svg">
<path d="M4.66895 13.6763V15.9701C4.66895 18.1328 4.66895 19.2141 5.3408 19.886C6.01265 20.5578 7.09398 20.5578 9.25664 20.5578H12.3151C14.4778 20.5578 15.5591 20.5578 16.2309 19.886C16.9028 19.2141 16.9028 18.1328 16.9028 15.9701V13.6763" stroke="white" stroke-width="1.5" stroke-linecap="round"/>
<path d="M4.66902 13.6128C2.49926 13.2488 0.845947 11.3617 0.845947 9.08853C0.845947 6.55482 2.89993 4.50084 5.43364 4.50084C5.74846 4.50084 6.05587 4.53255 6.35286 4.59295" stroke="white" stroke-width="1.5" stroke-linecap="round"/>
<path d="M17.0574 13.6128C19.2271 13.2488 20.8804 11.3617 20.8804 9.08853C20.8804 6.55482 18.8265 4.50084 16.2928 4.50084C15.9779 4.50084 15.6705 4.53255 15.3735 4.59295" stroke="white" stroke-width="1.5" stroke-linecap="round"/>
<path d="M6.34277 7.17696C6.24842 6.81038 6.19824 6.42607 6.19824 6.03004C6.19824 3.49633 8.25222 1.44235 10.7859 1.44235C13.3196 1.44235 15.3736 3.49633 15.3736 6.03004C15.3736 6.42607 15.3234 6.81038 15.2291 7.17696" stroke="white" stroke-width="1.5" stroke-linecap="round"/>
<path d="M4.66895 17.1171H16.9028" stroke="white" stroke-width="1.5"/>
<path d="M10.7559 9.73294V12.1355" stroke="white" stroke-width="1.5" stroke-linecap="round"/>
<path d="M6.50697 9.93436C6.31491 10.3634 6.66702 11.9989 7.08316 12.267" stroke="white" stroke-width="1.5" stroke-linecap="round"/>
<path d="M15.3197 9.93436C15.5118 10.3634 15.1596 11.9989 14.7435 12.267" stroke="white" stroke-width="1.5" stroke-linecap="round"/>
</svg>
