<svg width="21" height="21" viewBox="0 0 21 21" fill="none" xmlns="http://www.w3.org/2000/svg">
<path d="M14.9613 6.11562C11.7725 3.056 9.22393 2.84847 8.64139 2.84424L2.69377 17.3209C2.57995 17.5979 2.69419 17.8427 2.8393 17.9797C2.98441 18.1167 3.24166 18.2225 3.5281 18.1089L18.4043 12.2169C18.3913 11.6526 18.142 9.16739 14.9613 6.11562Z" stroke="#0A2533" stroke-width="1.5" stroke-linejoin="round"/>
<path d="M15.0312 13.2112C14.9394 12.889 14.7432 12.5898 14.5509 12.2983C14.3661 12.018 14.1914 11.7535 14.117 11.4859C14.0444 11.2251 14.0584 10.9167 14.0733 10.5903C14.095 10.1149 14.1172 9.6235 13.869 9.21166C13.6315 8.81734 13.1867 8.59389 12.7569 8.37749C12.4591 8.22758 12.151 8.07264 11.9393 7.86974C11.7279 7.66664 11.5664 7.37125 11.4101 7.08534C11.1846 6.67269 10.9515 6.24593 10.5407 6.01825C10.1117 5.78029 9.59971 5.80165 9.1039 5.8222C8.76349 5.83631 8.44219 5.84981 8.17045 5.78029C7.89157 5.70896 7.61563 5.54132 7.32373 5.36401" stroke="#0A2533" stroke-width="1.5"/>
<path d="M9.62498 8.3125C9.62498 8.55412 9.42911 8.75 9.18748 8.75C8.94586 8.75 8.74998 8.55412 8.74998 8.3125C8.74998 8.07088 8.94586 7.875 9.18748 7.875C9.42911 7.875 9.62498 8.07088 9.62498 8.3125Z" stroke="#0A2533" stroke-width="1.5"/>
<path d="M12.5406 12.5342C12.5406 12.7758 12.3447 12.9717 12.1031 12.9717C11.8614 12.9717 11.6656 12.7758 11.6656 12.5342C11.6656 12.2925 11.8614 12.0967 12.1031 12.0967C12.3447 12.0967 12.5406 12.2925 12.5406 12.5342Z" stroke="#0A2533" stroke-width="1.5"/>
<path d="M9.88267 12.7735C9.88267 13.0151 9.68679 13.211 9.44517 13.211C9.20354 13.211 9.00767 13.0151 9.00767 12.7735C9.00767 12.5319 9.20354 12.336 9.44517 12.336C9.68679 12.336 9.88267 12.5319 9.88267 12.7735Z" stroke="#0A2533" stroke-width="1.5"/>
<path d="M6.44873 14.9497C6.44873 15.1913 6.25286 15.3872 6.01123 15.3872C5.76961 15.3872 5.57373 15.1913 5.57373 14.9497C5.57373 14.7081 5.76961 14.5122 6.01123 14.5122C6.25286 14.5122 6.44873 14.7081 6.44873 14.9497Z" stroke="#0A2533" stroke-width="1.5"/>
<path d="M7.32373 11.3533C7.32373 11.5949 7.12786 11.7908 6.88623 11.7908C6.64461 11.7908 6.44873 11.5949 6.44873 11.3533C6.44873 11.1117 6.64461 10.9158 6.88623 10.9158C7.12786 10.9158 7.32373 11.1117 7.32373 11.3533Z" stroke="#0A2533" stroke-width="1.5"/>
</svg>
