<svg width="17" height="21" viewBox="0 0 17 21" fill="none" xmlns="http://www.w3.org/2000/svg">
<path d="M10.546 7.70337L4.31164 18.5016" stroke="#0A2533" stroke-width="1.5" stroke-linecap="round" stroke-linejoin="round"/>
<path d="M8.99573 16.5326C7.8215 16.8473 5.94606 15.9086 5.94606 15.9086C5.94606 15.9086 7.12517 13.8105 8.43918 13.5591C9.59954 13.3371 11.3248 14.4673 11.3248 14.4673C11.3248 14.4673 10.17 16.218 8.99573 16.5326Z" stroke="#0A2533" stroke-width="1.5" stroke-linecap="round" stroke-linejoin="round"/>
<path d="M11.6219 11.9838C10.4477 12.2984 8.57228 11.3597 8.57228 11.3597C8.57228 11.3597 9.75139 9.26163 11.0654 9.01027C12.2258 8.7883 13.951 9.9185 13.951 9.9185C13.951 9.9185 12.7962 11.6692 11.6219 11.9838Z" stroke="#0A2533" stroke-width="1.5" stroke-linecap="round" stroke-linejoin="round"/>
<path d="M13.1438 5.9882C12.536 7.04098 10.5461 7.70336 10.5461 7.70336C10.5461 7.70336 9.89623 5.38602 10.6476 4.27914C11.3112 3.30168 13.3303 2.88092 13.3303 2.88092C13.3303 2.88092 13.7516 4.93541 13.1438 5.9882Z" stroke="#0A2533" stroke-width="1.5" stroke-linecap="round" stroke-linejoin="round"/>
<path d="M3.59657 13.4154C3.91121 14.5896 5.66187 15.7444 5.66187 15.7444C5.66187 15.7444 6.88931 13.6742 6.45 12.4106C6.06205 11.2947 4.22064 10.3657 4.22064 10.3657C4.22064 10.3657 3.28194 12.2411 3.59657 13.4154Z" stroke="#0A2533" stroke-width="1.5" stroke-linecap="round" stroke-linejoin="round"/>
<path d="M6.22279 8.86653C6.53743 10.0408 8.28809 11.1956 8.28809 11.1956C8.28809 11.1956 9.51554 9.1254 9.07622 7.86176C8.68827 6.74587 6.84686 5.81686 6.84686 5.81686C6.84686 5.81686 5.90816 7.6923 6.22279 8.86653Z" stroke="#0A2533" stroke-width="1.5" stroke-linecap="round" stroke-linejoin="round"/>
</svg>
