<svg width="21" height="21" viewBox="0 0 21 21" fill="none" xmlns="http://www.w3.org/2000/svg">
<path d="M17.6277 8.38086C16.6877 9.65918 16.1238 11.0127 15.9734 12.4038C15.7102 14.5845 14.5071 16.4644 12.6272 17.5923C11.5368 18.2314 10.2961 18.5698 9.05541 18.5698C6.49876 18.5698 4.13011 17.1787 2.88939 14.9229C1.1223 11.727 2.21263 7.55371 5.29564 5.63623C6.08519 5.14746 6.91234 4.80908 7.81468 4.65869C8.98021 4.4707 10.1457 3.94434 11.3489 3.07959C11.4617 3.00439 11.5744 2.9292 11.6872 2.854C12.5896 2.36523 13.6047 2.06445 14.6199 2.06445C16.1238 2.06445 17.4397 2.74121 18.0788 3.86914C18.8684 5.18506 18.6804 6.91455 17.6277 8.38086Z" stroke="#0A2533" stroke-width="1.5"/>
<path d="M9.76978 9.09509C9.58179 9.0575 9.3562 9.17029 9.31861 9.35828C9.28101 9.54627 9.3938 9.77185 9.58179 9.80945C10.4841 10.035 11.0481 10.975 10.8225 11.8773C10.7849 12.0653 10.8977 12.2909 11.0857 12.3285C11.1233 12.3285 11.1609 12.3285 11.1609 12.3285C11.3113 12.3285 11.4993 12.2157 11.5369 12.0277C11.9128 10.787 11.0857 9.43347 9.76978 9.09509Z" fill="#0A2533"/>
<circle cx="9.18695" cy="11.4826" r="4.18573" stroke="#0A2533" stroke-width="1.5"/>
</svg>
