<svg width="24" height="24" viewBox="0 0 24 24" fill="none" xmlns="http://www.w3.org/2000/svg">
<path d="M14 21.71C12.9551 22.0215 11.8518 22.0847 10.7781 21.8943C9.70449 21.704 8.69015 21.2655 7.81598 20.6137C6.94181 19.962 6.23198 19.1151 5.74308 18.1404C5.25417 17.1658 4.99972 16.0904 5 15V11.938C5.00053 10.8937 5.4156 9.8924 6.154 9.154C6.8924 8.41559 7.89374 8.00053 8.938 8H15.062C16.1063 8.00053 17.1076 8.41559 17.846 9.154C18.5844 9.8924 18.9995 10.8937 19 11.938V15C19.0021 16.8322 18.2838 18.5918 17 19.899" stroke="#57B031" stroke-linecap="round"/>
<path d="M8.25 7.5C8.25 7.30109 8.17098 7.11032 8.03033 6.96967C7.88968 6.82902 7.69891 6.75 7.5 6.75C7.30109 6.75 7.11032 6.82902 6.96967 6.96967C6.82902 7.11032 6.75 7.30109 6.75 7.5H8.25ZM7.635 4.583C7.57677 4.66471 7.53553 4.75728 7.51372 4.85522C7.49191 4.95316 7.48997 5.05448 7.50803 5.15319C7.52608 5.25189 7.56376 5.34596 7.61882 5.42984C7.67389 5.51372 7.74523 5.5857 7.82861 5.64151C7.91199 5.69732 8.00573 5.73584 8.10427 5.75477C8.2028 5.7737 8.30414 5.77267 8.40227 5.75174C8.5004 5.7308 8.59333 5.69039 8.67556 5.63289C8.75779 5.5754 8.82765 5.50198 8.881 5.417L7.635 4.583ZM17.25 8.5V7.5H15.75V8.5H17.25ZM6.75 7.5V8.5H8.25V7.5H6.75ZM17.25 7.5C17.25 4.6 14.9 2.25 12 2.25V3.75C12.9946 3.75 13.9484 4.14509 14.6517 4.84835C15.3549 5.55161 15.75 6.50544 15.75 7.5H17.25ZM12 2.25C11.1367 2.25001 10.2867 2.46291 9.52533 2.86985C8.76395 3.27679 8.11467 3.86521 7.635 4.583L8.881 5.417C9.22366 4.90403 9.68759 4.48352 10.2316 4.19273C10.7757 3.90195 11.3831 3.74988 12 3.75V2.25Z" fill="#57B031"/>
<path d="M19 14H22M5 14H2M14.5 3.5L17 2M9.5 3.5L7 2M20.5 20L18.5 19.2M20.5 8L18.5 8.8M3.5 20L5.5 19.2M3.5 8L5.5 8.8M12 21.5V15" stroke="#57B031" stroke-linecap="round"/>
</svg>
